<svg width="48" height="48" viewBox="0 0 48 48" fill="none" xmlns="http://www.w3.org/2000/svg">
<path d="M23.9997 12.5208C26.8022 12.5208 29.3118 13.4867 31.291 15.3708L36.7139 9.94792C33.4205 6.88417 29.1218 5 23.9997 5C16.5739 5 10.1535 9.25917 7.02637 15.4658L13.3439 20.3663C14.8401 15.8617 19.0439 12.5208 23.9997 12.5208Z" fill="#EA4335"/>
<path d="M42.1925 24.4353C42.1925 23.1924 42.0737 21.9891 41.8917 20.8333H24V27.9741H34.2442C33.785 30.3174 32.455 32.3124 30.46 33.6583L36.5796 38.4083C40.15 35.0991 42.1925 30.2066 42.1925 24.4353Z" fill="#4285F4"/>
<path d="M13.3362 27.6337C12.9562 26.4858 12.7346 25.2667 12.7346 24C12.7346 22.7333 12.9483 21.5142 13.3362 20.3662L7.01875 15.4658C5.72833 18.0308 5 20.9283 5 24C5 27.0717 5.72833 29.9692 7.02667 32.5342L13.3362 27.6337Z" fill="#FBBC05"/>
<path d="M24.0008 42.9999C29.1308 42.9999 33.4454 41.3136 36.5804 38.4003L30.4608 33.6503C28.7587 34.7982 26.5658 35.4712 24.0008 35.4712C19.0449 35.4712 14.8412 32.1303 13.337 27.6257L7.01953 32.5261C10.1545 38.7407 16.5749 42.9999 24.0008 42.9999Z" fill="#34A853"/>
</svg>
