<svg width="48" height="48" viewBox="0 0 48 48" fill="none" xmlns="http://www.w3.org/2000/svg">
<path fill-rule="evenodd" clip-rule="evenodd" d="M44 24C44 35.0457 35.0457 44 24 44C12.9543 44 4 35.0457 4 24C4 12.9543 12.9543 4 24 4C35.0457 4 44 12.9543 44 24ZM33.0898 22.9048C33.1156 22.8789 33.141 22.8528 33.1661 22.8266C33.1431 22.8506 33.1198 22.8742 33.0963 22.898L33.0898 22.9048ZM21.1995 18.7991C21.8085 18.7267 22.4252 18.734 23.0326 18.8207C22.4798 18.7418 21.9193 18.7287 21.364 18.7815C21.3091 18.7868 21.2543 18.7926 21.1995 18.7991ZM25.1498 28.9546C25.7972 29.0246 26.4525 29.0049 27.0954 28.8954L27.1034 28.894C26.4579 29.0047 25.7999 29.0249 25.1498 28.9546ZM22.9291 33.3392L22.8872 33.3701C22.7599 33.4632 22.6288 33.5538 22.4941 33.641C22.6436 33.5442 22.7887 33.4433 22.9291 33.3392ZM20.2145 23.1772C20.3072 23.1105 20.4027 23.0495 20.5005 22.9942C20.412 23.0689 20.3157 23.1299 20.2145 23.1772ZM24.028 28.5325L23.9121 28.4994L23.8287 28.5864C22.9294 29.5252 22.2428 30.2392 22.006 30.4793C21.2733 31.2222 20.3803 31.7833 19.5144 31.9379C18.7468 32.0749 17.8453 31.9275 16.8457 30.9283C15.6983 29.7813 15.6983 27.9169 16.8457 26.7699L19.9692 23.6476C20.0834 23.5334 20.2045 23.4308 20.3312 23.3396C20.4179 23.2772 20.5072 23.2201 20.5987 23.1683C21.1392 22.8628 21.7564 22.7431 22.3572 22.8099C22.9926 22.8806 23.609 23.1596 24.0972 23.6476C24.4987 24.049 25.074 24.174 25.5833 24.0237C25.8111 23.9565 26.0262 23.8341 26.2067 23.6568C26.793 23.081 26.7972 22.1425 26.216 21.5615C25.4038 20.7496 24.4131 20.2231 23.3696 19.9825C21.8218 19.6255 20.1573 19.8974 18.7858 20.7991C18.4548 21.0167 18.1411 21.2709 17.8503 21.5615L14.7269 24.6838C12.4244 26.9855 12.4244 30.7127 14.7269 33.0144C16.384 34.6709 18.2628 35.1703 20.043 34.8526C21.2001 34.646 22.2336 34.1105 23.0875 33.4706L23.1251 33.4423L23.1509 33.4227C23.5144 33.1452 23.8454 32.8488 24.1396 32.5504C24.5209 32.1639 25.9611 30.6609 27.5804 28.967L28.0352 28.4912L27.3926 28.6335C26.2831 28.8792 25.1237 28.8455 24.028 28.5325ZM30.0925 26.1839C28.6999 27.576 26.7837 28.1282 24.9764 27.8413C23.7865 27.6524 22.6431 27.0998 21.7268 26.1839C21.1457 25.6029 21.1499 24.6644 21.7362 24.0886C22.3215 23.5137 23.2655 23.5179 23.8457 24.0978C24.9869 25.2386 26.8324 25.2386 27.9737 24.0978L31.0971 20.9755C31.4001 20.6726 31.6229 20.3201 31.7658 19.9441C32.1649 18.894 31.9415 17.6611 31.0971 16.8171C29.9559 15.6762 28.1103 15.6762 26.9691 16.8171L24.411 19.3743L24.2924 19.3328C23.256 18.9702 22.1488 18.865 21.0712 19.0175L20.4782 19.1014L24.8503 14.731C27.1591 12.423 30.9071 12.423 33.2159 14.731C35.195 16.7093 35.4729 19.7404 34.0502 22.0147C33.8203 22.3821 33.5461 22.7297 33.2278 23.0497L33.2159 23.0616L30.0925 26.1839Z" fill="black"/>
</svg>
