<svg width="1200" height="1080" viewBox="0 0 1200 1080" fill="none" xmlns="http://www.w3.org/2000/svg">
<path fill-rule="evenodd" clip-rule="evenodd" d="M269 147C269 116.072 294.072 91 325 91H1144C1174.93 91 1200 116.072 1200 147C1200 177.928 1174.93 203 1144 203H325C294.072 203 269 177.928 269 147Z" fill="#6DC6BC" fill-opacity="0.25"/>
<path fill-rule="evenodd" clip-rule="evenodd" d="M269 147C269 116.072 294.072 91 325 91H645C675.928 91 701 116.072 701 147C701 177.928 675.928 203 645 203H325C294.072 203 269 177.928 269 147Z" fill="#F7F8EB" fill-opacity="0.3"/>
<path fill-rule="evenodd" clip-rule="evenodd" d="M108 319C108 288.072 133.072 263 164 263H1091C1121.93 263 1147 288.072 1147 319C1147 349.928 1121.93 375 1091 375H164C133.072 375 108 349.928 108 319Z" fill="#6DC6BC" fill-opacity="0.25"/>
<path fill-rule="evenodd" clip-rule="evenodd" d="M108 319C108 288.072 133.072 263 164 263H654C684.928 263 710 288.072 710 319C710 349.928 684.928 375 654 375H164C133.072 375 108 349.928 108 319Z" fill="#F7F8EB" fill-opacity="0.3"/>
<path d="M628.9 387.732L540.663 418.485C538.515 419.234 536.287 417.437 536.519 415.173C538.043 400.287 540.239 355.086 515.926 322.411C514.932 321.075 515.141 319.174 516.448 318.143L586.42 262.931C587.96 261.716 590.234 262.282 591.024 264.079L609.068 305.105C609.223 305.457 609.308 305.832 609.325 306.217C609.565 311.608 611.992 353.525 630.46 383.149C631.507 384.829 630.769 387.081 628.9 387.732Z" fill="#F9A0B1"/>
<path d="M593.058 268.704L571.021 292.396C570.253 293.222 570.025 294.416 570.367 295.491C578.592 321.375 557.418 340.598 543.835 352.235C540.414 355.165 536.694 357.462 532.808 359.207C529.62 346.627 524.373 333.763 515.926 322.411C514.932 321.075 515.141 319.174 516.448 318.143L586.42 262.931C587.96 261.716 590.234 262.282 591.024 264.079L593.058 268.704Z" fill="#E88791"/>
<path d="M463.137 266.684C465.874 251.554 464.589 242.377 468.261 207.745C468.374 206.679 469.051 205.736 470.032 205.303L555.44 167.574C556.968 166.898 558.754 167.603 559.411 169.14L593.671 249.351C594.13 250.425 593.924 251.667 593.143 252.535L564.621 284.261C564.021 284.928 563.757 285.844 563.875 286.734C568.07 318.427 549.088 331.755 535.403 341.329C525.484 348.269 492.75 358.387 477.871 348.765C470.457 343.97 463.464 332.217 460.321 304.084C460.141 302.469 458.724 301.259 457.101 301.169C453.029 300.942 446.129 299.682 446.129 293.742C446.129 279.332 456.84 274.231 462.468 268.065C462.818 267.681 463.044 267.196 463.137 266.684Z" fill="#F9A0B1"/>
<path d="M509.344 205.688C505.706 208.096 466.337 233.23 453.569 202.037C449.106 191.132 450.097 160.295 460.513 150.98C469.936 142.553 518.13 119.939 553.755 121.238C574.09 121.979 577.802 128.178 586.985 131.647C596.167 135.117 608.807 133.134 626.166 152.963C647.744 177.61 661.059 237.232 649.973 252.103C626.787 283.204 630.705 287.298 625.67 293.742C619.333 301.853 612.162 303.923 610.53 314.931C610.406 315.767 609.4 316.164 608.804 315.565C603.038 309.77 582.521 288.246 582.521 275.401C582.521 264.991 597.399 242.685 578.056 231.283C574.197 229.009 557.671 225.063 540.798 248.564C540.272 249.296 539.091 249.025 538.92 248.14C531.655 210.448 512.735 206.007 509.957 205.554C509.727 205.517 509.537 205.56 509.344 205.688Z" fill="#F43241"/>
<path d="M578.553 278.376C570.494 290.768 554.747 295.725 539.868 286.307C530.588 277.611 534.82 254.971 546.81 242.189C558.801 229.407 571.766 226.739 582.025 234.258C589.464 239.711 591.449 258.548 578.553 278.376Z" fill="#F9A0B1"/>
<path d="M410.335 945.213C419.347 915.105 419.347 906.925 419.347 906.925L485.195 570.062C485.373 569.148 486.16 568.478 487.091 568.447L648.584 563.064C649.655 563.028 650.564 563.843 650.645 564.911L677.25 915.352C677.25 915.352 675.305 933.338 677.193 958.238C677.229 958.71 677.118 959.163 676.829 959.539C651.332 992.752 499.513 1011.49 411.062 947.413C410.377 946.917 410.092 946.023 410.335 945.213Z" fill="#C0C0C0"/>
<path d="M309.242 630.819C396.036 662.048 472.911 648.169 512.093 662.048L494.734 726.489C494.734 726.489 388.154 703.712 294.417 665.048C273.943 683.484 245.74 679.409 221.504 670.996C192.306 660.86 160.327 609.582 176.818 599.094C198.641 585.214 273.532 587.197 309.242 630.819Z" fill="#F37C7F"/>
<path d="M101.65 603.949C109.434 572.179 117.1 554.053 134.518 526.226C131.545 528.762 127.103 532.549 126.083 533.419C125.94 533.541 125.816 533.681 125.713 533.838C111.947 554.771 101.043 578.541 93 610.757L101.65 603.949Z" fill="#057E92"/>
<path fill-rule="evenodd" clip-rule="evenodd" d="M134.518 526.226C203.545 570.422 301.801 640.256 311.448 647.125C311.975 647.5 312.219 648.068 312.214 648.715C311.983 682.6 300.412 698.353 282.716 720.816C205.446 679.969 164.504 651.603 101.65 603.949C109.434 572.179 117.1 554.053 134.518 526.226Z" fill="#409BA8"/>
<path d="M282.716 720.816C205.446 679.969 164.504 651.603 101.65 603.949L93 610.757C152.111 659.877 206.081 694.95 271.963 726.042C272.556 726.322 273.249 726.295 273.817 725.967C275.632 724.916 279.798 722.505 282.716 720.816Z" fill="#015C6B"/>
<path d="M839.925 876.687C819.051 899.418 717.641 858.574 680.47 832.884C673.922 828.358 670.803 820.762 671.075 812.807C673.594 739.222 693.592 444.468 734.285 437.496C763.547 432.482 829.015 466.7 878.116 484.587C931.184 503.92 935.535 539.1 936.638 552.499C943.086 630.819 873.155 840.501 839.925 876.687Z" fill="#387F6E"/>
<path d="M692.826 924.771C615.252 946.322 500.8 966.484 410.383 930.605C409.782 930.366 409.341 929.911 409.242 929.273C406.197 909.73 429.472 802.282 441.169 686.833C452.611 573.907 483.745 456.28 516.944 420.758C517.019 420.678 517.096 420.608 517.184 420.542C544.302 399.874 576.517 384.612 636.201 378.594C636.752 378.539 637.318 378.72 637.733 379.088C758.801 486.64 658.162 743.899 694.235 922.458C694.443 923.489 693.839 924.489 692.826 924.771Z" fill="#015F78"/>
<path d="M577.154 947.455C619.301 943.047 659.472 934.037 692.826 924.771C693.839 924.489 694.443 923.489 694.235 922.458C680.406 854.005 686.669 773.985 692.83 695.268C700.39 598.689 707.796 504.071 677.752 435.181C616.496 563.028 584.364 870.886 577.154 947.455Z" fill="#015566"/>
<path fill-rule="evenodd" clip-rule="evenodd" d="M637.419 406.829C648.553 409.367 659.493 413.469 670.306 419.072C689.801 429.173 708.884 444.15 727.952 463.636L710.224 480.966C692.009 462.353 674.694 449.093 657.907 440.572C649.112 436.108 640.463 432.945 631.904 430.993C607.317 425.388 584.917 433.703 556.73 448.401C542.223 455.965 531.996 465.176 525.98 480.966C519.758 497.297 514.775 516.91 516.713 548.373C517.266 557.353 518.628 566.747 519.885 574.007C520.508 577.611 521.095 580.632 521.524 582.74C521.738 583.793 521.913 584.615 522.031 585.166C522.09 585.441 522.136 585.648 522.165 585.782L522.197 585.926L522.204 585.958C522.204 585.958 522.204 585.957 510.109 588.684C498.014 591.412 498.013 591.41 498.013 591.41L498.007 591.383L497.994 591.325L497.949 591.121C497.911 590.948 497.856 590.699 497.788 590.381C497.651 589.745 497.457 588.83 497.223 587.677C496.754 585.374 496.121 582.112 495.449 578.231C494.115 570.523 492.592 560.142 491.961 549.896C489.93 516.919 492.213 490.349 500.25 469.254C508.493 447.618 522.53 432.434 542.245 422.154C574.466 405.352 605.905 399.644 637.419 406.829Z" fill="#3D8A78"/>
<path d="M839.925 876.687C819.051 899.418 717.641 858.574 680.47 832.884C673.922 828.358 670.803 820.762 671.075 812.807C673.594 739.222 693.592 444.468 734.285 437.496C763.547 432.482 829.015 466.7 878.116 484.587C931.184 503.92 935.535 539.1 936.638 552.499C943.086 630.819 873.155 840.501 839.925 876.687Z" fill="#387F6E"/>
<path d="M741.399 587.394C739.15 602.327 736.738 618.346 735.946 636.423C735.841 638.821 736.851 641.169 738.703 642.696C758.223 658.79 777.525 665.942 804.45 675.917C822.562 682.628 844.124 690.616 871.523 703.465C873.785 704.526 876.474 704.567 878.436 703.019C902.691 683.872 928.973 592.569 928.708 523.992C921.327 510.196 906.876 495.064 878.116 484.587C864.245 479.534 849.068 473.178 833.77 466.771C794.915 450.498 755.281 433.898 734.285 437.496C727.356 438.683 721.027 448.214 715.282 463.577C752.892 511.057 747.81 544.809 741.399 587.394Z" fill="#175850"/>
<path d="M751.736 579.376C749.945 594.59 748.174 609.636 748.174 625.862C768.69 643.26 786.479 650.144 813.995 660.791C830.381 667.132 850.217 674.807 876.134 686.833C898.494 686.833 918.343 588.903 927.131 521.207C919.331 508.192 904.952 494.363 878.116 484.587C864.245 479.534 849.068 473.178 833.77 466.771C796.364 451.104 758.235 435.135 736.71 437.177C761.009 500.617 756.308 540.544 751.736 579.376Z" fill="#378071"/>
<path d="M903.36 641.215C895.246 668.034 885.931 686.833 876.134 686.833C850.217 674.807 830.381 667.132 813.995 660.791C793.515 652.866 778.424 647.027 763.586 637.385C763.777 625.977 764.947 589.847 772.11 574.805C810.639 576.263 890.15 609.333 899.112 624.375C901.851 628.971 903.101 634.821 903.36 641.215Z" fill="#499081"/>
<path d="M725.954 810.782C715.626 764.88 712.173 703.304 726.95 689.312C745.871 671.395 833.978 701.684 841.415 717.071C852.681 740.377 840.518 807.069 818.786 840.81C816.752 843.967 813.082 845.595 809.349 845.184C774.942 841.403 748.813 828.692 730.668 817.427C728.267 815.936 726.574 813.54 725.954 810.782Z" fill="#175850"/>
<path d="M726.715 794.025C717.918 752.884 714.459 700.544 727.658 688.122C744.617 672.161 823.927 696.36 830.411 710.261C840.172 731.186 828.809 791.207 809.423 821.636C807.391 824.827 803.677 826.449 799.923 825.98C769.972 822.232 747.216 810.839 731.325 800.699C728.952 799.184 727.303 796.778 726.715 794.025Z" fill="#36786A"/>
<path d="M495.217 688.32C504.144 645.194 517.536 601.573 517.536 601.573L594.411 621.896C576.06 696.747 572.588 753.779 554.733 772.094C506.128 821.951 370.233 735.412 276.495 696.747C256.022 715.184 227.819 711.109 203.583 702.696C174.385 692.56 150.668 674.115 149.522 654.613C147.163 614.461 224.927 625.366 234.834 627.349C293.358 652.63 420.326 673.945 495.217 688.32Z" fill="#F9A0AF"/>
<path d="M584.008 479.63C526.13 465.667 505.567 522.573 481.104 588.632C480.636 589.898 480.828 591.321 481.65 592.391C505.19 623.039 546.514 645.236 601.662 647.548C603.734 647.635 605.513 646.089 605.76 644.029C615.083 566.547 640.653 493.296 584.008 479.63Z" fill="#F43241"/>
</svg>
