<svg width="1200" height="1080" viewBox="0 0 1200 1080" fill="none" xmlns="http://www.w3.org/2000/svg">
<path fill-rule="evenodd" clip-rule="evenodd" d="M269 147C269 116.072 294.072 91 325 91H1144C1174.93 91 1200 116.072 1200 147C1200 177.928 1174.93 203 1144 203H325C294.072 203 269 177.928 269 147Z" fill="#5FC2B7" fill-opacity="0.25"/>
<path fill-rule="evenodd" clip-rule="evenodd" d="M269 147C269 116.072 294.072 91 325 91H645C675.928 91 701 116.072 701 147C701 177.928 675.928 203 645 203H325C294.072 203 269 177.928 269 147Z" fill="white" fill-opacity="0.4"/>
<path fill-rule="evenodd" clip-rule="evenodd" d="M108 319C108 288.072 133.072 263 164 263H1091C1121.93 263 1147 288.072 1147 319C1147 349.928 1121.93 375 1091 375H164C133.072 375 108 349.928 108 319Z" fill="#5FC2B7" fill-opacity="0.25"/>
<path fill-rule="evenodd" clip-rule="evenodd" d="M108 319C108 288.072 133.072 263 164 263H654C684.928 263 710 288.072 710 319C710 349.928 684.928 375 654 375H164C133.072 375 108 349.928 108 319Z" fill="white" fill-opacity="0.4"/>
<path d="M628.9 387.732L540.663 418.486C538.515 419.234 536.287 417.437 536.519 415.174C538.043 400.287 540.239 355.086 515.926 322.411C514.932 321.075 515.141 319.174 516.448 318.143L586.42 262.932C587.96 261.716 590.234 262.283 591.024 264.079L609.068 305.105C609.223 305.458 609.308 305.832 609.325 306.217C609.565 311.608 611.992 353.525 630.46 383.15C631.507 384.829 630.769 387.081 628.9 387.732Z" fill="#F9A0B1"/>
<path d="M593.671 273.5C590.432 281 572.531 287.333 568.366 288.718C567.872 288.882 567.589 289.392 567.691 289.902C572.599 314.26 557.252 340.741 543.835 352.235C540.414 355.166 536.694 357.462 532.808 359.207C529.62 346.628 524.373 333.763 515.926 322.411C514.932 321.075 515.141 319.174 516.448 318.143L586.42 262.932C587.96 261.716 590.234 262.283 591.024 264.079C591.024 264.079 595.936 268.257 593.671 273.5Z" fill="#E88791"/>
<path d="M463.137 266.685C465.874 251.554 464.589 242.378 468.261 207.745C468.374 206.679 469.051 205.736 470.032 205.303L486.495 153.181C487.032 151.481 488.924 150.622 490.557 151.335L606.5 202L593.944 248.346C593.767 248.997 593.87 249.687 593.908 250.36C593.952 251.144 593.687 251.931 593.143 252.535L564.621 284.261C564.021 284.928 563.757 285.845 563.875 286.734C568.07 318.427 549.088 331.755 535.403 341.33C525.484 348.269 492.75 358.388 477.871 348.765C470.457 343.97 463.464 332.217 460.321 304.084C460.141 302.469 458.724 301.259 457.101 301.169C453.029 300.942 446.129 299.682 446.129 293.742C446.129 279.332 456.84 274.231 462.468 268.065C462.818 267.681 463.044 267.196 463.137 266.685Z" fill="#F9A0B1"/>
<path d="M590.571 278.315C577 287.001 560 289.5 553.339 286.498C542.37 281.556 548.949 256.447 560.638 243.987C572.328 231.526 584.806 228.774 594.539 235.854C601.598 240.988 609.979 265.894 590.571 278.315Z" fill="#F9A0B1"/>
<path d="M410.335 945.213C419.347 915.105 419.347 906.925 419.347 906.925L485.195 570.062C485.373 569.148 486.16 568.478 487.091 568.447L648.584 563.064C649.655 563.028 650.564 563.843 650.645 564.911L677.25 915.352C677.25 915.352 675.305 933.338 677.193 958.238C677.229 958.71 677.118 959.163 676.829 959.539C651.332 992.752 499.513 1011.49 411.062 947.413C410.377 946.917 410.092 946.023 410.335 945.213Z" fill="#C0C0C0"/>
<path d="M309.242 630.819C396.036 662.048 472.911 648.169 512.093 662.048L494.734 726.489C494.734 726.489 388.154 703.712 294.417 665.048C273.943 683.484 245.74 679.409 221.504 670.996C192.306 660.86 160.327 609.582 176.818 599.094C198.641 585.214 273.532 587.197 309.242 630.819Z" fill="#F37C7F"/>
<path d="M101.65 603.949C109.434 572.179 117.1 554.053 134.518 526.226C131.545 528.762 127.103 532.549 126.083 533.419C125.94 533.541 125.816 533.681 125.713 533.838C111.947 554.771 101.043 578.541 93 610.757L101.65 603.949Z" fill="#057E92"/>
<path fill-rule="evenodd" clip-rule="evenodd" d="M134.518 526.226C203.545 570.422 301.801 640.256 311.448 647.125C311.975 647.5 312.219 648.068 312.214 648.715C311.983 682.6 300.412 698.353 282.716 720.816C205.446 679.969 164.504 651.603 101.65 603.949C109.434 572.179 117.1 554.053 134.518 526.226Z" fill="#409BA8"/>
<path d="M282.716 720.816C205.446 679.969 164.504 651.603 101.65 603.949L93 610.757C152.111 659.877 206.081 694.95 271.963 726.042C272.556 726.322 273.249 726.295 273.817 725.967C275.632 724.916 279.798 722.505 282.716 720.816Z" fill="#015C6B"/>
<path d="M839.925 876.687C819.051 899.418 717.641 858.574 680.47 832.884C673.922 828.358 670.803 820.762 671.075 812.807C673.594 739.222 693.592 444.468 734.285 437.496C763.547 432.482 829.015 466.7 878.116 484.587C931.184 503.92 935.535 539.1 936.638 552.499C943.086 630.819 873.155 840.501 839.925 876.687Z" fill="#387F6E"/>
<path d="M692.826 924.771C615.252 946.322 500.8 966.484 410.383 930.604C409.782 930.366 409.341 929.911 409.242 929.273C406.197 909.73 429.472 802.282 441.169 686.833C452.611 573.907 483.745 456.279 516.944 420.758C517.019 420.677 517.096 420.608 517.184 420.541C544.302 399.873 576.517 384.612 636.201 378.594C636.752 378.538 637.318 378.72 637.733 379.088C758.801 486.64 658.162 743.899 694.235 922.458C694.443 923.489 693.839 924.489 692.826 924.771Z" fill="#015F78"/>
<path d="M577.154 947.455C619.301 943.046 659.472 934.037 692.826 924.771C693.839 924.489 694.443 923.489 694.235 922.458C680.406 854.004 686.669 773.985 692.83 695.268C700.39 598.689 707.796 504.071 677.752 435.181C616.496 563.028 584.364 870.886 577.154 947.455Z" fill="#015566"/>
<path fill-rule="evenodd" clip-rule="evenodd" d="M637.419 406.829C648.553 409.368 659.493 413.47 670.306 419.072C689.801 429.173 708.884 444.151 727.952 463.636L710.224 480.966C692.009 462.353 674.694 449.093 657.907 440.572C649.112 436.108 640.463 432.945 631.904 430.994C607.317 425.388 584.917 433.703 556.73 448.401C542.223 455.966 531.996 465.177 525.98 480.966C519.758 497.297 514.775 516.91 516.713 548.374C517.266 557.353 518.628 566.747 519.885 574.008C520.508 577.611 521.095 580.632 521.524 582.74C521.738 583.793 521.913 584.616 522.031 585.166C522.09 585.441 522.136 585.648 522.165 585.782L522.197 585.927L522.204 585.959C522.204 585.959 522.204 585.957 510.109 588.685C498.014 591.412 498.013 591.41 498.013 591.41L498.007 591.383L497.994 591.325L497.949 591.122C497.911 590.948 497.856 590.7 497.788 590.382C497.651 589.746 497.457 588.83 497.223 587.677C496.754 585.374 496.121 582.112 495.449 578.231C494.115 570.523 492.592 560.142 491.961 549.896C489.93 516.919 492.213 490.349 500.25 469.255C508.493 447.619 522.53 432.435 542.245 422.154C574.466 405.352 605.905 399.644 637.419 406.829Z" fill="#3D8A78"/>
<path d="M839.925 876.687C819.051 899.418 717.641 858.574 680.47 832.884C673.922 828.358 670.803 820.762 671.075 812.807C673.594 739.222 693.592 444.468 734.285 437.496C763.547 432.482 829.015 466.7 878.116 484.587C931.184 503.92 935.535 539.1 936.638 552.499C943.086 630.819 873.155 840.501 839.925 876.687Z" fill="#387F6E"/>
<path d="M741.399 587.394C739.15 602.327 736.738 618.346 735.946 636.423C735.841 638.821 736.851 641.169 738.703 642.696C758.223 658.79 777.525 665.942 804.45 675.917C822.562 682.628 844.124 690.616 871.523 703.465C873.785 704.526 876.474 704.567 878.436 703.019C902.691 683.872 928.973 592.569 928.708 523.992C921.327 510.196 906.876 495.064 878.116 484.587C864.245 479.534 849.068 473.178 833.77 466.771C794.915 450.498 755.281 433.898 734.285 437.496C727.356 438.683 721.027 448.214 715.282 463.577C752.892 511.057 747.81 544.809 741.399 587.394Z" fill="#175850"/>
<path d="M751.736 579.376C749.945 594.59 748.174 609.636 748.174 625.862C768.69 643.26 786.479 650.144 813.995 660.791C830.381 667.132 850.217 674.807 876.134 686.833C898.494 686.833 918.343 588.903 927.131 521.207C919.331 508.192 904.952 494.363 878.116 484.587C864.245 479.534 849.068 473.178 833.77 466.771C796.364 451.104 758.235 435.135 736.71 437.177C761.009 500.617 756.308 540.544 751.736 579.376Z" fill="#378071"/>
<path d="M903.36 641.215C895.246 668.034 885.931 686.833 876.134 686.833C850.217 674.807 830.381 667.132 813.995 660.791C793.515 652.866 778.424 647.027 763.586 637.385C763.777 625.977 764.947 589.847 772.11 574.805C810.639 576.263 890.15 609.333 899.112 624.375C901.851 628.971 903.101 634.821 903.36 641.215Z" fill="#499081"/>
<path d="M725.954 810.782C715.626 764.88 712.173 703.304 726.95 689.312C745.871 671.395 833.978 701.684 841.415 717.071C852.681 740.377 840.518 807.069 818.786 840.81C816.752 843.967 813.082 845.595 809.349 845.184C774.942 841.403 748.813 828.692 730.668 817.427C728.267 815.936 726.574 813.54 725.954 810.782Z" fill="#175850"/>
<path d="M726.715 794.025C717.918 752.884 714.459 700.544 727.658 688.122C744.617 672.161 823.927 696.36 830.411 710.261C840.172 731.186 828.809 791.207 809.423 821.636C807.391 824.827 803.677 826.449 799.923 825.98C769.972 822.232 747.216 810.839 731.325 800.699C728.952 799.184 727.303 796.778 726.715 794.025Z" fill="#36786A"/>
<path d="M495.217 688.32C504.144 645.194 517.536 601.573 517.536 601.573L594.411 621.896C576.06 696.747 572.588 753.779 554.733 772.094C506.128 821.951 370.233 735.412 276.495 696.747C256.022 715.184 227.819 711.109 203.583 702.696C174.385 692.56 150.668 674.115 149.522 654.613C147.163 614.461 224.927 625.366 234.834 627.349C293.358 652.63 420.326 673.945 495.217 688.32Z" fill="#F9A0AF"/>
<path d="M584.008 479.63C526.13 465.667 505.567 522.573 481.104 588.632C480.636 589.898 480.828 591.321 481.65 592.391C505.19 623.039 546.514 645.236 601.662 647.548C603.734 647.635 605.513 646.089 605.76 644.029C615.083 566.547 640.653 493.296 584.008 479.63Z" fill="#F43241"/>
<path d="M671.5 391.5C680.979 422.855 697 441 777 463C716.5 384 744.5 350 763.5 302C771.534 281.703 809 195.5 745.5 166C719.817 154.069 673 167.5 673 167.5C673 167.5 660.5 130.471 597 121.499C459 102.001 430.5 191.499 466.5 222.499C466.5 222.499 475 190 499 194.5C515 197.5 497 234.999 560 253.999C560 245.999 567.5 232.499 585 234.999C608 238.285 587.5 281.999 587.5 281.999C587.5 281.999 596.097 352.687 629.5 316.5C659.5 284 672 270 679 219.5C751 229.5 652 327 671.5 391.5Z" fill="#F43241"/>
</svg>
