<svg width="30" height="30" viewBox="0 0 30 30" fill="none" xmlns="http://www.w3.org/2000/svg">
<path d="M14.608 12.238C13.726 12.0345 12.7777 12.1893 11.9961 12.7026L14.4664 19.9205C14.6745 19.7616 14.8641 19.5919 15.0326 19.421C15.2522 19.1983 16.0828 18.3315 17.0172 17.3541L17.1877 17.1756L16.9468 17.229C16.3001 17.3722 15.6245 17.3526 14.9859 17.1701L14.9424 17.1577L14.9111 17.1904C14.3924 17.7318 13.996 18.144 13.8591 18.2828C13.4328 18.715 12.9105 19.0446 12.4 19.1357C11.9436 19.2172 11.4104 19.1275 10.8248 18.5421C10.147 17.8645 10.147 16.7634 10.8248 16.0858L12.6267 14.2845C12.6925 14.2188 12.7622 14.1595 12.835 14.1066C12.8948 14.078 12.9518 14.0418 13.0045 13.9981C13.3225 13.82 13.6848 13.7505 14.0375 13.7897C14.4128 13.8314 14.777 13.9963 15.0654 14.2845C15.2861 14.5052 15.6025 14.5741 15.8828 14.4914C16.008 14.4544 16.1263 14.3871 16.2255 14.2896C16.5478 13.9731 16.5501 13.4574 16.2307 13.1381C15.7676 12.6753 15.2029 12.3751 14.608 12.238ZM14.4301 19.9479C14.4422 19.9388 14.4542 19.9297 14.4662 19.9206L11.9947 12.7035C11.9943 12.7037 11.9939 12.704 11.9935 12.7043C11.8053 12.8281 11.6269 12.9728 11.4614 13.1381L9.65947 14.9395C8.34684 16.2516 8.34684 18.3763 9.65947 19.6885C10.6066 20.6352 11.6773 20.9186 12.6908 20.7377C13.3506 20.6199 13.9411 20.3143 14.4301 19.9479ZM18.4666 15.7478L19.4828 14.732C19.5042 14.7334 19.526 14.7257 19.5419 14.7089L20.2759 13.9391C20.4572 13.7568 20.6133 13.5589 20.7442 13.3496C21.5553 12.0531 21.3968 10.3252 20.2686 9.19746C18.9524 7.88171 16.8156 7.88171 15.4994 9.19746L13.2214 11.4746L13.0626 11.6334L13.2849 11.6019C13.9129 11.513 14.5582 11.5743 15.1623 11.7857L15.2068 11.8012L15.2401 11.7679L16.6647 10.3438C17.3388 9.66992 18.4291 9.66992 19.1033 10.3438C19.6021 10.8425 19.734 11.5707 19.4983 12.1908C19.4139 12.413 19.2823 12.6212 19.1033 12.8001L17.3013 14.6014C16.6272 15.2753 15.5369 15.2753 14.8627 14.6014C14.5437 14.2825 14.0244 14.2802 13.7025 14.5963C13.3803 14.9128 13.378 15.4285 13.6974 15.7478C14.2198 16.27 14.8716 16.585 15.5499 16.6927C16.5804 16.8562 17.6728 16.5414 18.4666 15.7478Z" fill="#AAAAAA" stroke="#AAAAAA" stroke-width="0.15" stroke-linecap="round"/>
</svg>
