<svg width="40" height="40" viewBox="0 0 40 40" fill="none" xmlns="http://www.w3.org/2000/svg">
<path fill-rule="evenodd" clip-rule="evenodd" d="M11 13.5C11 12.6716 11.6716 12 12.5 12H27.5C28.3284 12 29 12.6716 29 13.5C29 14.3284 28.3284 15 27.5 15H12.5C11.6716 15 11 14.3284 11 13.5ZM16.5 20C16.5 19.1716 17.1716 18.5 18 18.5H27.5C28.3284 18.5 29 19.1716 29 20C29 20.8284 28.3284 21.5 27.5 21.5H18C17.1716 21.5 16.5 20.8284 16.5 20Z" fill="#AAAAAA"/>
<path d="M15 25C14.1716 25 13.5 25.6716 13.5 26.5C13.5 27.3284 14.1716 28 15 28H21C21 26.8744 21.3719 25.8357 21.9996 25H15Z" fill="#AAAAAA"/>
<circle cx="26" cy="28" r="3" fill="#F5C14B"/>
</svg>
