<svg width="100" height="100" viewBox="0 0 100 100" fill="none" xmlns="http://www.w3.org/2000/svg">
<path fill-rule="evenodd" clip-rule="evenodd" d="M50 91C72.6437 91 91 72.6437 91 50C91 27.3563 72.6437 9 50 9C27.3563 9 9 27.3563 9 50C9 72.6437 27.3563 91 50 91ZM50 100C77.6142 100 100 77.6142 100 50C100 22.3858 77.6142 0 50 0C22.3858 0 0 22.3858 0 50C0 77.6142 22.3858 100 50 100Z" fill="#F1BA53"/>
<path d="M91 50C91 72.6437 72.6437 91 50 91C27.3563 91 9 72.6437 9 50C9 27.3563 27.3563 9 50 9C72.6437 9 91 27.3563 91 50Z" fill="#FFBF47" fill-opacity="0.25"/>
<circle cx="32" cy="42" r="7" fill="#F1BA53"/>
<circle cx="68" cy="42" r="7" fill="#F1BA53"/>
<rect x="31" y="61" width="36" height="9" rx="4.5" fill="#F1BA53"/>
</svg>
