<svg width="100" height="100" viewBox="0 0 100 100" fill="none" xmlns="http://www.w3.org/2000/svg">
<path d="M95.5 50C95.5 75.129 75.129 95.5 50 95.5C24.871 95.5 4.5 75.129 4.5 50C4.5 24.871 24.871 4.5 50 4.5C75.129 4.5 95.5 24.871 95.5 50Z" fill="#55AE1E" fill-opacity="0.3" stroke="#7CB35A" stroke-width="9"/>
<path d="M50 79C38.5032 79 31.5252 72.0479 27.734 66.3414C25.4783 62.946 28.1825 59 32.2589 59H67.741C71.8174 59 74.5217 62.946 72.2659 66.3414C68.4747 72.0479 61.4967 79 50 79Z" fill="#7CB35A"/>
<circle cx="32" cy="42" r="7" fill="#7CB35A"/>
<circle cx="68" cy="42" r="7" fill="#7CB35A"/>
</svg>
