<svg width="1116" height="907" viewBox="0 0 1116 907" fill="none" xmlns="http://www.w3.org/2000/svg">
<rect x="177" width="939" height="112" rx="56" fill="#DCEFED"/>
<rect x="177" width="436" height="112" rx="56" fill="#E5F4EF"/>
<rect x="15" y="174" width="1046" height="112" rx="56" fill="#DCEFED"/>
<rect x="15" y="174" width="598" height="112" rx="56" fill="#E5F4EF"/>
<path d="M540.289 299.294L451.264 330.338C449.116 331.088 446.888 329.291 447.12 327.027C448.657 312.053 450.9 266.388 426.348 233.396C425.355 232.06 425.564 230.16 426.87 229.129L497.455 173.404C498.996 172.187 501.271 172.754 502.061 174.551L520.265 215.966C520.42 216.319 520.506 216.694 520.523 217.079C520.763 222.5 523.208 264.822 541.848 294.713C542.895 296.392 542.158 298.642 540.289 299.294Z" fill="#F9A0B1"/>
<path fill-rule="evenodd" clip-rule="evenodd" d="M504.124 179.245L481.896 203.155C481.129 203.98 480.901 205.174 481.243 206.248C489.549 232.364 468.196 251.76 454.5 263.5C451.051 266.456 447.302 268.772 443.383 270.533C440.168 257.836 434.874 244.852 426.348 233.395C425.355 232.06 425.563 230.16 426.87 229.129L497.455 173.403C498.996 172.187 501.271 172.754 502.061 174.551L504.124 179.245Z" fill="#E88791"/>
<path d="M373.145 177.215C375.907 161.947 374.61 152.693 378.313 117.742C378.426 116.676 379.104 115.733 380.084 115.3L466.221 77.2283C467.75 76.5525 469.536 77.2568 470.193 78.7943L504.749 159.74C505.207 160.814 505.001 162.055 504.221 162.923L475.447 194.946C474.847 195.613 474.584 196.529 474.702 197.419C478.938 229.395 459.798 242.842 446 252.5C436 259.5 403 269.706 388 260C380.523 255.162 373.471 243.302 370.305 214.907C370.125 213.291 368.708 212.082 367.085 211.993C362.982 211.768 356 210.503 356 204.5C356 189.961 366.804 184.817 372.476 178.595C372.827 178.211 373.052 177.726 373.145 177.215Z" fill="#F9A0B1"/>
<path d="M419.731 115.681C416.078 118.101 376.375 143.47 363.501 112C359.001 101 360 69.8965 370.501 60.5C380 51.9999 428.586 29.1899 464.501 30.5001C485.001 31.2479 488.744 37.5 498.001 41C507.258 44.5 520.001 42.4999 537.501 62.5C559.254 87.3608 572.677 147.5 561.501 162.5C538.126 193.871 542.076 198 537.001 204.5C530.609 212.686 523.375 214.771 521.735 225.89C521.612 226.726 520.606 227.124 520.01 226.525C514.213 220.697 493.501 198.965 493.501 186C493.501 175.5 508.5 153 489 141.5C485.109 139.205 468.441 135.224 451.427 158.946C450.902 159.679 449.72 159.408 449.549 158.523C442.225 120.473 423.137 116.001 420.344 115.547C420.115 115.51 419.925 115.553 419.731 115.681Z" fill="#010101"/>
<path d="M489.501 189.001C481.376 201.5 465.501 206.5 450.501 197.001C441.146 188.229 445.412 165.393 457.5 152.5C469.588 139.607 482.659 136.916 493 144.5C500.5 150 502.501 169.001 489.501 189.001Z" fill="#F9A0B1"/>
<path d="M319.911 861.632C326.562 839.402 328.346 829.019 328.825 825.049C328.96 823.927 329.936 823.031 331.065 823.068L586.845 831.43C588.008 831.468 588.901 832.476 588.807 833.636C588.365 839.128 587.424 854.727 588.943 874.764C588.979 875.236 588.868 875.689 588.58 876.065C562.885 909.571 409.811 928.473 320.638 863.832C319.953 863.335 319.668 862.442 319.911 861.632Z" fill="#C0C0C0"/>
<path d="M604.718 840.996C526.511 862.737 411.115 883.079 319.955 846.882C319.355 846.643 318.914 846.189 318.814 845.551C315.736 825.863 339.206 717.468 351 601C362.535 487.094 393.923 368.445 427.391 332.616C427.466 332.536 427.544 332.467 427.631 332.4C454.972 311.552 487.449 296.157 547.624 290.087C548.175 290.032 548.742 290.213 549.156 290.581C671.221 399.067 569.75 658.573 606.126 838.684C606.334 839.715 605.731 840.715 604.718 840.996Z" fill="#015F78"/>
<path d="M218 544.5C305.5 576 383 562 422.5 576L405 641C405 641 297.554 618.025 203.054 579.025C182.414 597.622 153.982 593.511 129.549 585.025C100.114 574.802 67.8743 523.079 84.4991 512.5C106.5 498.5 182 500.5 218 544.5Z" fill="#F37C7F"/>
<path d="M8.72 517.397C16.568 485.351 24.2959 467.068 41.856 439C38.8561 441.559 34.3745 445.383 33.3498 446.257C33.2066 446.379 33.0835 446.519 32.9802 446.676C19.1017 467.791 8.10834 491.767 0 524.263L8.72 517.397Z" fill="#057E92"/>
<path fill-rule="evenodd" clip-rule="evenodd" d="M41.856 439C111.462 483.591 210.551 554.056 220.232 560.952C220.758 561.327 221.001 561.895 220.996 562.542C220.765 596.727 209.1 612.617 191.259 635.278C113.36 594.076 72.0853 565.465 8.72 517.397C16.568 485.351 24.2959 467.068 41.856 439Z" fill="#409BA8"/>
<path d="M191.259 635.278C113.36 594.076 72.0853 565.465 8.72 517.397L0 524.263C59.5933 573.812 114.004 609.19 180.426 640.552C181.019 640.832 181.712 640.806 182.279 640.477C184.106 639.419 188.313 636.983 191.259 635.278Z" fill="#015C6B"/>
<path d="M405.487 602.5C414.487 559 427.987 515 427.987 515L505.487 535.5C486.987 611 483.487 668.526 465.487 687C416.487 737.289 279.487 650 184.987 611C164.347 629.596 135.915 625.486 111.482 617C82.0468 606.777 58.1373 588.171 56.982 568.5C54.6034 528 133 539 142.987 541C201.987 566.5 329.987 588 405.487 602.5Z" fill="#F9A0AF"/>
<path d="M752.997 792.5C731.938 815.445 629.563 774.166 592.16 748.257C585.619 743.726 582.5 736.123 582.771 728.171C585.295 654.124 605.456 356.536 646.499 349.5C675.999 344.443 741.999 378.958 791.499 397C844.999 416.5 849.385 451.985 850.497 465.5C856.997 544.5 786.497 756 752.997 792.5Z" fill="#387F6E"/>
<path fill-rule="evenodd" clip-rule="evenodd" d="M488.09 863.882C530.586 859.434 571.09 850.345 604.718 840.996C605.731 840.715 606.334 839.715 606.126 838.684C592.18 769.633 598.495 688.914 604.707 609.508C612.328 512.091 619.794 416.653 589.506 347.166C527.752 476.121 495.359 786.648 488.09 863.882Z" fill="#015566"/>
<path fill-rule="evenodd" clip-rule="evenodd" d="M548.845 318.568C560.07 321.128 571.099 325.266 582 330.917C601.653 341.105 620.892 356.213 640.115 375.867L622.242 393.348C603.879 374.573 586.423 361.198 569.5 352.603C560.634 348.101 551.913 344.91 543.285 342.942C518.498 337.287 495.916 345.674 467.5 360.5C452.876 368.13 442.565 377.421 436.5 393.348C430.228 409.82 425.204 429.603 427.157 461.339C427.715 470.397 429.089 479.872 430.355 487.196C430.984 490.83 431.576 493.877 432.008 496.004C432.224 497.066 432.4 497.896 432.519 498.451C432.579 498.729 432.625 498.937 432.654 499.072L432.687 499.218L432.694 499.25C432.694 499.25 432.694 499.249 420.5 502C408.307 504.751 408.306 504.749 408.306 504.749L408.3 504.722L408.287 504.663L408.241 504.458C408.203 504.283 408.148 504.032 408.079 503.712C407.941 503.07 407.746 502.147 407.509 500.984C407.037 498.661 406.398 495.371 405.721 491.456C404.376 483.681 402.841 473.21 402.205 462.875C400.157 429.612 402.459 402.812 410.561 381.534C418.871 359.711 433.022 344.395 452.898 334.025C485.381 317.078 517.075 311.321 548.845 318.568Z" fill="#3D8A78"/>
<path d="M752.997 792.5C731.938 815.445 629.563 774.166 592.16 748.257C585.619 743.726 582.5 736.123 582.771 728.171C585.295 654.124 605.456 356.536 646.499 349.5C675.999 344.443 741.999 378.958 791.499 397C844.999 416.5 849.385 451.985 850.497 465.5C856.997 544.5 786.497 756 752.997 792.5Z" fill="#387F6E"/>
<path d="M495 392C436.646 377.914 415.917 435.326 391.253 501.966C390.785 503.231 390.977 504.653 391.798 505.723C415.531 536.65 457.206 559.049 512.827 561.375C514.9 561.462 516.678 559.916 516.926 557.856C526.321 479.691 552.113 405.786 495 392Z" fill="#F43241"/>
<path fill-rule="evenodd" clip-rule="evenodd" d="M653.67 500.698C651.402 515.77 648.969 531.938 648.172 550.187C648.067 552.584 649.076 554.931 650.927 556.459C670.615 572.708 690.078 579.923 717.234 589.989C735.499 596.76 757.245 604.821 784.88 617.789C787.143 618.851 789.835 618.891 791.798 617.344C816.257 598.071 842.77 505.94 842.502 436.747C835.062 422.831 820.492 407.568 791.499 397C777.515 391.903 762.215 385.492 746.792 379.029C707.622 362.615 667.665 345.872 646.499 349.5C639.513 350.698 633.133 360.312 627.341 375.808C665.257 423.699 660.134 457.744 653.67 500.698Z" fill="#175850"/>
<path fill-rule="evenodd" clip-rule="evenodd" d="M664.092 492.611C662.286 507.957 660.5 523.133 660.5 539.5C681.183 557.049 699.117 563.992 726.856 574.732C743.376 581.127 763.373 588.87 789.501 601C812.043 601 832.053 502.22 840.912 433.938C833.049 420.809 818.554 406.861 791.5 397C777.516 391.903 762.216 385.492 746.793 379.029C709.083 363.227 670.644 347.119 648.944 349.178C673.44 413.169 668.701 453.442 664.092 492.611Z" fill="#378071"/>
<path fill-rule="evenodd" clip-rule="evenodd" d="M816.948 554.985C808.768 582.037 799.377 601 789.501 601C763.373 588.87 743.376 581.127 726.856 574.732C706.21 566.738 690.996 560.848 676.038 551.123C676.23 539.617 677.41 503.173 684.632 488C723.473 489.471 803.631 522.827 812.666 538C815.427 542.636 816.687 548.537 816.948 554.985Z" fill="#499081"/>
<path d="M638.108 726.062C627.69 679.758 624.203 617.618 639.104 603.5C658.179 585.427 747.002 615.979 754.5 631.5C765.862 655.018 753.586 722.332 731.66 756.353C729.625 759.51 725.954 761.139 722.22 760.729C687.489 756.919 661.123 744.079 642.82 732.706C640.42 731.215 638.729 728.819 638.108 726.062Z" fill="#175850"/>
<path d="M638.875 709.159C630.001 667.656 626.508 614.833 639.818 602.3C656.915 586.201 736.87 610.609 743.407 624.631C753.251 645.747 741.78 706.334 722.221 737.014C720.187 740.204 716.472 741.828 712.717 741.359C682.48 737.582 659.514 726.072 643.483 715.833C641.111 714.318 639.463 711.911 638.875 709.159Z" fill="#36786A"/>
</svg>
