<svg width="1434" height="1169" viewBox="0 0 1434 1169" fill="none" xmlns="http://www.w3.org/2000/svg">
<rect x="337" y="130" width="939" height="112" rx="56" fill="#DCEFED"/>
<rect x="337" y="130" width="436" height="112" rx="56" fill="#E5F4EF"/>
<rect x="175" y="304" width="1046" height="112" rx="56" fill="#DCEFED"/>
<rect x="175" y="304" width="598" height="112" rx="56" fill="#E5F4EF"/>
<path d="M700.289 429.294L611.264 460.338C609.116 461.088 606.888 459.291 607.12 457.027C608.657 442.053 610.9 396.388 586.348 363.396C585.355 362.06 585.564 360.16 586.87 359.129L657.455 303.404C658.996 302.187 661.271 302.754 662.061 304.551L680.265 345.966C680.42 346.319 680.506 346.694 680.523 347.079C680.763 352.5 683.208 394.822 701.848 424.713C702.895 426.392 702.158 428.642 700.289 429.294Z" fill="#F9A0B1"/>
<path fill-rule="evenodd" clip-rule="evenodd" d="M664.124 309.245L641.896 333.155C641.128 333.98 640.901 335.174 641.242 336.248C649.548 362.364 628.196 381.76 614.5 393.5C611.051 396.456 607.301 398.772 603.383 400.533C600.168 387.836 594.873 374.852 586.348 363.395C585.354 362.06 585.563 360.16 586.87 359.129L657.455 303.403C658.996 302.187 661.27 302.754 662.06 304.551L664.124 309.245Z" fill="#E88791"/>
<path d="M533.145 307.215C535.907 291.947 534.61 282.693 538.313 247.742C538.426 246.676 539.104 245.733 540.084 245.3L626.221 207.228C627.75 206.552 629.536 207.257 630.193 208.794L664.749 289.74C665.207 290.814 665.001 292.055 664.221 292.923L635.447 324.946C634.847 325.613 634.584 326.529 634.702 327.419C638.938 359.395 619.798 372.842 606 382.5C596 389.5 563 399.706 548 390C540.523 385.162 533.471 373.302 530.305 344.907C530.125 343.291 528.708 342.082 527.085 341.993C522.982 341.768 516 340.503 516 334.5C516 319.961 526.804 314.817 532.476 308.595C532.827 308.211 533.052 307.726 533.145 307.215Z" fill="#F9A0B1"/>
<path d="M579.731 245.681C576.078 248.101 536.376 273.47 523.501 242C519.001 231 520 199.896 530.501 190.5C540 182 588.586 159.19 624.501 160.5C645.001 161.248 648.744 167.5 658.001 171C667.258 174.5 680.001 172.5 697.501 192.5C719.254 217.361 732.678 277.5 721.501 292.5C698.127 323.871 702.077 328 697.001 334.5C690.609 342.686 683.375 344.771 681.735 355.89C681.612 356.726 680.606 357.124 680.01 356.525C674.213 350.697 653.501 328.965 653.501 316C653.501 305.5 668.5 283 649 271.5C645.109 269.205 628.441 265.224 611.428 288.946C610.902 289.679 609.72 289.408 609.549 288.523C602.226 250.473 583.137 246.001 580.344 245.547C580.115 245.51 579.925 245.553 579.731 245.681Z" fill="#010101"/>
<path d="M649.501 319.001C641.376 331.5 625.501 336.5 610.501 327.001C601.146 318.229 605.412 295.393 617.5 282.5C629.588 269.607 642.659 266.916 653 274.5C660.5 280 662.501 299.001 649.501 319.001Z" fill="#F9A0B1"/>
<path d="M479.911 991.632C486.562 969.402 488.346 959.019 488.825 955.049C488.96 953.927 489.936 953.031 491.065 953.068L746.845 961.43C748.008 961.468 748.901 962.476 748.807 963.636C748.365 969.128 747.424 984.727 748.943 1004.76C748.979 1005.24 748.868 1005.69 748.58 1006.06C722.885 1039.57 569.811 1058.47 480.638 993.832C479.953 993.335 479.668 992.442 479.911 991.632Z" fill="#C0C0C0"/>
<path d="M764.718 970.996C686.511 992.737 571.115 1013.08 479.956 976.882C479.355 976.643 478.914 976.189 478.815 975.551C475.736 955.863 499.206 847.468 511 731C522.535 617.094 553.923 498.445 587.392 462.616C587.467 462.536 587.544 462.467 587.632 462.4C614.972 441.552 647.449 426.157 707.624 420.087C708.175 420.032 708.742 420.213 709.156 420.581C831.221 529.067 729.751 788.573 766.126 968.684C766.335 969.715 765.731 970.715 764.718 970.996Z" fill="#015F78"/>
<path d="M378 674.5C465.5 706 543 692 582.5 706L565 771C565 771 457.554 748.025 363.054 709.025C342.414 727.622 313.982 723.511 289.549 715.025C260.114 704.802 227.874 653.079 244.499 642.5C266.5 628.5 342 630.5 378 674.5Z" fill="#F37C7F"/>
<path d="M168.72 647.397C176.568 615.351 184.296 597.068 201.856 569C198.856 571.559 194.374 575.383 193.35 576.257C193.207 576.379 193.084 576.519 192.98 576.676C179.102 597.791 168.108 621.767 160 654.263L168.72 647.397Z" fill="#057E92"/>
<path fill-rule="evenodd" clip-rule="evenodd" d="M201.856 569C271.462 613.591 370.551 684.056 380.232 690.952C380.758 691.327 381.001 691.895 380.996 692.542C380.765 726.727 369.1 742.617 351.259 765.278C273.36 724.076 232.085 695.465 168.72 647.397C176.568 615.351 184.296 597.068 201.856 569Z" fill="#409BA8"/>
<path d="M351.259 765.278C273.36 724.076 232.085 695.465 168.72 647.397L160 654.263C219.593 703.812 274.004 739.19 340.426 770.552C341.019 770.832 341.712 770.806 342.279 770.477C344.106 769.419 348.313 766.983 351.259 765.278Z" fill="#015C6B"/>
<path d="M565.487 732.5C574.487 689 587.987 645 587.987 645L665.487 665.5C646.987 741 643.487 798.526 625.487 817C576.487 867.289 439.487 780 344.987 741C324.347 759.596 295.915 755.486 271.482 747C242.047 736.777 218.137 718.171 216.982 698.5C214.603 658 293 669 302.987 671C361.987 696.5 489.987 718 565.487 732.5Z" fill="#F9A0AF"/>
<path d="M912.997 922.5C891.938 945.445 789.563 904.166 752.16 878.257C745.619 873.726 742.5 866.123 742.771 858.171C745.295 784.124 765.456 486.536 806.499 479.5C835.999 474.443 901.999 508.958 951.499 527C1005 546.5 1009.39 581.985 1010.5 595.5C1017 674.5 946.497 886 912.997 922.5Z" fill="#387F6E"/>
<path fill-rule="evenodd" clip-rule="evenodd" d="M648.09 993.882C690.586 989.434 731.09 980.345 764.717 970.996C765.731 970.715 766.334 969.715 766.126 968.684C752.18 899.633 758.495 818.914 764.707 739.508C772.328 642.091 779.794 546.653 749.506 477.166C687.752 606.121 655.358 916.648 648.09 993.882Z" fill="#015566"/>
<path fill-rule="evenodd" clip-rule="evenodd" d="M708.845 448.568C720.07 451.128 731.099 455.266 742 460.917C761.653 471.105 780.892 486.213 800.115 505.867L782.242 523.348C763.879 504.573 746.423 491.198 729.5 482.603C720.634 478.101 711.913 474.91 703.285 472.942C678.498 467.287 655.916 475.674 627.5 490.5C612.876 498.13 602.565 507.421 596.5 523.348C590.228 539.82 585.204 559.603 587.157 591.339C587.715 600.397 589.089 609.872 590.355 617.196C590.984 620.83 591.576 623.877 592.008 626.004C592.224 627.066 592.4 627.896 592.519 628.451C592.579 628.729 592.625 628.937 592.654 629.072L592.687 629.218L592.694 629.25C592.694 629.25 592.694 629.249 580.5 632C568.307 634.751 568.306 634.749 568.306 634.749L568.3 634.722L568.287 634.663L568.241 634.458C568.203 634.283 568.148 634.032 568.079 633.712C567.941 633.07 567.746 632.147 567.509 630.984C567.037 628.661 566.398 625.371 565.721 621.456C564.376 613.681 562.841 603.21 562.205 592.875C560.157 559.612 562.459 532.812 570.561 511.534C578.871 489.711 593.022 474.395 612.898 464.025C645.381 447.078 677.075 441.321 708.845 448.568Z" fill="#3D8A78"/>
<path d="M912.997 922.5C891.938 945.445 789.563 904.166 752.16 878.257C745.619 873.726 742.5 866.123 742.771 858.171C745.295 784.124 765.456 486.536 806.499 479.5C835.999 474.443 901.999 508.958 951.499 527C1005 546.5 1009.39 581.985 1010.5 595.5C1017 674.5 946.497 886 912.997 922.5Z" fill="#387F6E"/>
<path d="M655 522C596.646 507.914 575.917 565.326 551.253 631.966C550.785 633.231 550.977 634.653 551.798 635.723C575.531 666.65 617.206 689.049 672.827 691.375C674.899 691.462 676.678 689.916 676.925 687.856C686.32 609.691 712.113 535.786 655 522Z" fill="#F43241"/>
<path fill-rule="evenodd" clip-rule="evenodd" d="M813.67 630.698C811.402 645.77 808.969 661.938 808.172 680.187C808.067 682.584 809.076 684.931 810.927 686.459C830.615 702.708 850.078 709.923 877.234 719.989C895.499 726.76 917.245 734.821 944.88 747.789C947.143 748.851 949.835 748.891 951.798 747.344C976.257 728.071 1002.77 635.94 1002.5 566.747C995.062 552.831 980.492 537.568 951.499 527C937.515 521.903 922.215 515.492 906.792 509.029C867.622 492.615 827.665 475.872 806.499 479.5C799.513 480.698 793.133 490.312 787.341 505.808C825.257 553.699 820.134 587.744 813.67 630.698Z" fill="#175850"/>
<path fill-rule="evenodd" clip-rule="evenodd" d="M824.092 622.611C822.286 637.957 820.5 653.133 820.5 669.5C841.183 687.049 859.117 693.992 886.856 704.732C903.376 711.127 923.373 718.87 949.501 731C972.043 731 992.053 632.22 1000.91 563.938C993.049 550.809 978.554 536.861 951.5 527C937.516 521.903 922.216 515.492 906.793 509.029C869.083 493.227 830.644 477.119 808.944 479.178C833.44 543.169 828.701 583.442 824.092 622.611Z" fill="#378071"/>
<path fill-rule="evenodd" clip-rule="evenodd" d="M976.948 684.985C968.768 712.037 959.377 731 949.501 731C923.373 718.87 903.376 711.127 886.856 704.732C866.21 696.738 850.996 690.848 836.038 681.123C836.23 669.617 837.41 633.173 844.632 618C883.473 619.471 963.631 652.827 972.666 668C975.427 672.636 976.687 678.537 976.948 684.985Z" fill="#499081"/>
<path d="M798.108 856.062C787.69 809.758 784.203 747.618 799.104 733.5C818.179 715.427 907.002 745.979 914.5 761.5C925.862 785.018 913.586 852.332 891.66 886.353C889.625 889.51 885.954 891.139 882.22 890.729C847.489 886.919 821.123 874.079 802.82 862.706C800.42 861.215 798.729 858.819 798.108 856.062Z" fill="#175850"/>
<path d="M798.875 839.159C790.001 797.656 786.508 744.833 799.818 732.3C816.915 716.201 896.87 740.609 903.407 754.631C913.251 775.747 901.78 836.334 882.221 867.014C880.187 870.204 876.472 871.828 872.717 871.359C842.48 867.582 819.514 856.072 803.483 845.833C801.111 844.318 799.463 841.911 798.875 839.159Z" fill="#36786A"/>
</svg>
