<svg width="1200" height="1080" viewBox="0 0 1200 1080" fill="none" xmlns="http://www.w3.org/2000/svg">
<rect x="251.602" y="126" width="841.398" height="100.292" rx="50.1458" fill="#DCEFED"/>
<rect x="251.602" y="126" width="390.681" height="100.292" rx="50.1458" fill="#E5F4EF"/>
<rect x="106.441" y="281.81" width="937.276" height="100.292" rx="50.1458" fill="#DCEFED"/>
<rect x="106.441" y="281.81" width="535.842" height="100.292" rx="50.1458" fill="#E5F4EF"/>
<path d="M576.742 394.141L497.854 421.633C495.705 422.381 493.477 420.567 493.7 418.303C495.067 404.409 496.736 364.388 475.221 335.251C474.232 333.911 474.441 332.011 475.748 330.98L538.433 281.525C539.974 280.309 542.247 280.876 543.037 282.672L559.163 319.333C559.318 319.686 559.403 320.052 559.421 320.437C559.648 325.479 561.863 362.901 578.31 389.554C579.349 391.238 578.612 393.49 576.742 394.141Z" fill="#F9A0B1"/>
<path fill-rule="evenodd" clip-rule="evenodd" d="M544.724 286.507L524.938 307.776C524.17 308.602 523.942 309.793 524.279 310.87C531.564 334.164 512.499 351.469 500.258 361.954C497.168 364.601 493.808 366.675 490.297 368.251C487.44 356.976 482.75 345.447 475.221 335.251C474.232 333.911 474.441 332.011 475.748 330.98L538.433 281.525C539.974 280.309 542.247 280.876 543.037 282.672L544.724 286.507Z" fill="#E88791"/>
<path d="M427.374 284.607C429.825 271.01 428.683 262.7 431.972 231.613C432.084 230.548 432.762 229.607 433.742 229.174L510.473 195.282C512.002 194.607 513.787 195.311 514.444 196.848L545.205 268.856C545.664 269.93 545.458 271.172 544.677 272.041L519.127 300.456C518.527 301.124 518.263 302.038 518.379 302.928C522.097 331.456 504.984 343.47 492.642 352.104C483.681 358.372 454.111 367.511 440.67 358.82C433.998 354.505 427.703 343.953 424.849 318.748C424.666 317.133 423.245 315.921 421.623 315.813C417.917 315.565 411.997 314.35 411.997 309.122C411.997 296.15 421.607 291.53 426.705 285.986C427.057 285.603 427.282 285.119 427.374 284.607Z" fill="#F9A0B1"/>
<path d="M469.071 229.609C465.607 231.896 430.218 254.384 418.718 226.292C414.685 216.441 415.581 188.59 424.99 180.175C433.502 172.564 477.038 152.138 509.219 153.312C527.589 153.981 530.942 159.58 539.237 162.714C547.532 165.848 558.951 164.057 574.632 181.966C594.124 204.228 606.152 258.081 596.137 271.512C575.192 299.604 578.731 303.301 574.184 309.122C568.498 316.399 562.068 318.292 560.537 328.06C560.406 328.895 559.395 329.284 558.8 328.685C553.398 323.24 535.205 304.051 535.205 292.556C535.205 283.153 548.645 263.006 531.172 252.708C527.696 250.659 512.847 247.111 497.653 268.125C497.124 268.856 495.945 268.584 495.773 267.699C489.205 234.015 472.304 229.911 469.687 229.474C469.458 229.435 469.265 229.481 469.071 229.609Z" fill="#010101"/>
<path d="M531.621 295.243C524.341 306.436 510.115 310.913 496.675 302.406C488.292 294.552 492.115 274.103 502.946 262.558C513.778 251.013 525.49 248.603 534.757 255.394C541.477 260.319 543.27 277.333 531.621 295.243Z" fill="#F9A0B1"/>
<path d="M379.701 897.416C385.507 878.004 387.153 868.721 387.619 865.019C387.76 863.898 388.739 862.995 389.868 863.032L618.623 870.505C619.786 870.543 620.679 871.556 620.587 872.716C620.184 877.82 619.388 891.605 620.721 909.24C620.757 909.713 620.646 910.166 620.356 910.541C597.209 940.493 460.299 957.356 380.429 899.614C379.744 899.119 379.459 898.227 379.701 897.416Z" fill="#C0C0C0"/>
<path d="M634.675 879.131C564.629 898.572 461.394 916.719 379.798 884.389C379.198 884.151 378.754 883.688 378.66 883.049C376.004 865.132 396.97 768.252 407.516 664.172C417.851 562.186 445.97 455.955 475.956 423.857C476.031 423.777 476.109 423.707 476.196 423.641C500.678 404.988 529.76 391.211 583.612 385.771C584.163 385.715 584.73 385.897 585.143 386.265C694.371 483.407 603.607 715.577 636.085 876.818C636.293 877.849 635.689 878.85 634.675 879.131Z" fill="#015F78"/>
<path d="M288.34 613.579C366.745 641.785 436.19 629.249 471.584 641.785L455.903 699.99C455.903 699.99 359.625 679.418 274.948 644.495C256.454 661.147 230.977 657.466 209.083 649.867C182.707 640.713 153.819 594.397 168.716 584.924C188.43 572.387 256.082 574.178 288.34 613.579Z" fill="#F37C7F"/>
<path d="M100.814 589.309C107.846 560.613 114.771 544.241 130.505 519.107C127.84 521.38 123.869 524.765 122.907 525.585C122.764 525.707 122.639 525.848 122.536 526.006C110.108 544.907 100.262 566.371 93 595.458L100.814 589.309Z" fill="#057E92"/>
<path fill-rule="evenodd" clip-rule="evenodd" d="M130.505 519.107C192.654 558.894 281.032 621.685 290.244 628.243C290.771 628.618 291.03 629.196 291.025 629.843C290.793 660.379 280.346 674.599 264.379 694.866C194.577 657.972 157.593 632.352 100.814 589.309C107.846 560.613 114.771 544.241 130.505 519.107Z" fill="#409BA8"/>
<path d="M264.379 694.866C194.577 657.972 157.593 632.352 100.814 589.309L93 595.458C146.37 639.802 195.101 671.471 254.573 699.543C255.166 699.823 255.861 699.795 256.429 699.467C258.113 698.492 261.789 696.365 264.379 694.866Z" fill="#015C6B"/>
<path d="M456.34 665.515C464.404 626.563 476.501 587.162 476.501 587.162L545.946 605.519C529.369 673.127 526.232 724.639 510.103 741.182C466.197 786.214 343.437 708.05 258.759 673.127C240.265 689.779 214.788 686.098 192.894 678.499C166.519 669.345 145.094 652.685 144.059 635.07C141.928 598.803 212.176 608.653 221.125 610.444C273.992 633.279 388.688 652.531 456.34 665.515Z" fill="#F9A0AF"/>
<path d="M767.729 835.653C749.053 855.989 659.001 819.989 624.661 796.754C618.068 792.294 614.956 784.762 615.24 776.807C617.68 708.485 635.749 445.226 672.3 438.964C698.734 434.435 757.873 465.342 802.228 481.498C850.167 498.96 854.098 530.735 855.094 542.837C860.919 613.579 797.747 802.969 767.729 835.653Z" fill="#387F6E"/>
<path fill-rule="evenodd" clip-rule="evenodd" d="M530.357 899.572C568.357 895.598 604.58 887.484 634.675 879.131C635.689 878.85 636.293 877.849 636.085 876.818C623.639 815.028 629.292 742.822 634.852 671.79C641.681 584.558 648.371 499.096 621.231 436.873C565.896 552.348 536.87 830.413 530.357 899.572Z" fill="#015566"/>
<path fill-rule="evenodd" clip-rule="evenodd" d="M584.797 411.265C594.855 413.558 604.737 417.263 614.505 422.323C632.116 431.446 649.355 444.975 666.579 462.574L650.565 478.227C634.11 461.415 618.469 449.439 603.305 441.743C595.36 437.711 587.546 434.853 579.815 433.091C557.604 428.028 537.369 435.538 511.907 448.814C498.803 455.646 489.563 463.966 484.129 478.227C478.509 492.978 474.007 510.693 475.757 539.111C476.257 547.222 477.488 555.707 478.623 562.265C479.186 565.52 479.717 568.248 480.104 570.152C480.298 571.103 480.455 571.846 480.562 572.343C480.615 572.592 480.656 572.779 480.683 572.9L480.712 573.03L480.719 573.059C480.719 573.059 480.718 573.058 469.792 575.522C458.866 577.985 458.866 577.983 458.866 577.983L458.86 577.959L458.848 577.906L458.808 577.723C458.773 577.566 458.724 577.341 458.662 577.054C458.538 576.48 458.363 575.653 458.152 574.612C457.728 572.531 457.156 569.585 456.549 566.08C455.344 559.118 453.968 549.741 453.398 540.487C451.564 510.701 453.626 486.703 460.886 467.649C468.332 448.107 481.013 434.392 498.822 425.107C527.929 409.931 556.329 404.775 584.797 411.265Z" fill="#3D8A78"/>
<path d="M767.729 835.653C749.053 855.989 659.001 819.989 624.661 796.754C618.068 792.294 614.956 784.762 615.24 776.807C617.68 708.485 635.749 445.226 672.3 438.964C698.734 434.435 757.873 465.342 802.228 481.498C850.167 498.96 854.098 530.735 855.094 542.837C860.919 613.579 797.747 802.969 767.729 835.653Z" fill="#387F6E"/>
<path d="M444.119 574.049L443.664 575.278C443.195 576.543 443.388 577.967 444.212 579.035C465.448 606.566 502.602 626.51 552.143 628.674C554.216 628.764 555.992 627.217 556.241 625.158C564.697 555.305 587.633 489.343 536.548 477.021C484.681 464.509 465.987 514.993 444.119 574.049Z" fill="#F43241"/>
<path fill-rule="evenodd" clip-rule="evenodd" d="M678.726 574.355C676.71 587.742 674.549 602.095 673.817 618.274C673.709 620.672 674.714 623.014 676.571 624.536C694.109 638.911 711.489 645.35 735.683 654.312C751.968 660.345 771.341 667.522 795.927 679.032C798.19 680.092 800.868 680.138 802.805 678.56C824.636 660.775 848.169 578.759 847.93 517.09C841.263 504.628 828.208 490.961 802.228 481.498C789.698 476.934 775.988 471.193 762.169 465.406C727.07 450.708 691.266 435.715 672.3 438.964C666.041 440.036 660.323 448.645 655.134 462.521C689.109 505.406 684.518 535.892 678.726 574.355Z" fill="#175850"/>
<path fill-rule="evenodd" clip-rule="evenodd" d="M688.064 567.114C686.446 580.856 684.846 594.445 684.846 609.101C703.379 624.816 719.448 631.033 744.305 640.65C759.107 646.377 777.026 653.31 800.438 664.172C820.637 664.172 838.567 575.718 846.505 514.574C839.459 502.819 826.471 490.328 802.229 481.498C789.699 476.934 775.989 471.193 762.169 465.406C728.379 451.256 693.935 436.832 674.491 438.675C696.44 495.977 692.194 532.04 688.064 567.114Z" fill="#378071"/>
<path fill-rule="evenodd" clip-rule="evenodd" d="M825.032 622.968C817.703 647.192 809.288 664.172 800.438 664.172C777.027 653.31 759.108 646.377 744.305 640.65C725.805 633.492 712.172 628.218 698.769 619.509C698.941 609.205 699.998 576.572 706.469 562.985C741.274 564.302 813.1 594.171 821.195 607.758C823.669 611.91 824.799 617.193 825.032 622.968Z" fill="#499081"/>
<path d="M664.681 775.712C655.424 734.297 652.37 679.007 665.674 666.411C682.766 650.227 762.357 677.585 769.075 691.484C779.197 712.421 768.383 772.126 748.949 802.754C746.937 805.925 743.263 807.558 739.532 807.134C708.96 803.666 685.666 792.406 669.392 782.35C666.987 780.864 665.298 778.47 664.681 775.712Z" fill="#175850"/>
<path d="M665.373 760.577C657.492 723.481 654.434 676.514 666.313 665.336C681.633 650.92 753.277 672.776 759.135 685.333C767.898 704.118 757.811 757.788 740.493 785.426C738.485 788.631 734.764 790.263 731.013 789.779C704.466 786.349 684.217 776.281 669.982 767.245C667.606 765.736 665.958 763.331 665.373 760.577Z" fill="#36786A"/>
</svg>
