<svg width="20" height="20" viewBox="0 0 20 20" fill="none" xmlns="http://www.w3.org/2000/svg">
<path fill-rule="evenodd" clip-rule="evenodd" d="M19 10C19 14.9706 14.9706 19 10 19C5.02944 19 1 14.9706 1 10C1 5.02944 5.02944 1 10 1C14.9706 1 19 5.02944 19 10ZM6.56852 11.232C5.92333 11.6188 5.36092 12.5258 5.12695 13.4002C4.99434 13.8958 5.24217 14.3879 5.63344 14.6939C8.01178 16.5537 11.2396 16.6209 13.6851 14.8616L13.8895 14.7145C14.3304 14.3973 14.6128 13.8599 14.4565 13.3202C14.2104 12.471 13.6627 11.607 13.0372 11.232C12.1708 10.7125 11.0253 10.4171 9.80286 10.4171C8.58037 10.4171 7.43495 10.7125 6.56852 11.232ZM6.82596 6.63117C6.82596 4.87677 8.25048 3.45455 10.0077 3.45455C11.765 3.45455 13.1895 4.87677 13.1895 6.63117C13.1895 8.38557 11.765 9.8078 10.0077 9.8078C8.25048 9.8078 6.82596 8.38557 6.82596 6.63117Z" fill="#686868"/>
</svg>
