<svg width="30" height="30" viewBox="0 0 30 30" fill="none" xmlns="http://www.w3.org/2000/svg">
<path d="M5.125 8.33333C5.125 6.56142 6.56142 5.125 8.33333 5.125L15.6667 5.125C17.4386 5.125 18.875 6.56142 18.875 8.33333V10.2381C18.875 10.7827 18.4335 11.2242 17.8889 11.2242C17.3443 11.2242 16.9028 10.7827 16.9028 10.2381V8.33333C16.9028 7.65065 16.3494 7.09722 15.6667 7.09722L8.33333 7.09722C7.65065 7.09722 7.09722 7.65065 7.09722 8.33333L7.09722 21.6667C7.09722 22.3494 7.65065 22.9028 8.33333 22.9028H15.6667C16.3494 22.9028 16.9028 22.3494 16.9028 21.6667V19.7619C16.9028 19.2173 17.3443 18.7758 17.8889 18.7758C18.4335 18.7758 18.875 19.2173 18.875 19.7619V21.6667C18.875 23.4386 17.4386 24.875 15.6667 24.875H8.33333C6.56142 24.875 5.125 23.4386 5.125 21.6667L5.125 8.33333Z" fill="#474743"/>
<path d="M20.5449 11.8968C20.1358 11.4629 20.1358 10.7594 20.5449 10.3254C20.9541 9.89152 21.6174 9.89152 22.0265 10.3254L25.6932 14.2143C26.1023 14.6482 26.1023 15.3518 25.6932 15.7857L22.0265 19.6746C21.6174 20.1085 20.9541 20.1085 20.5449 19.6746C20.1358 19.2406 20.1358 18.5371 20.5449 18.1032L22.4232 16.1111H16.0476C15.469 16.1111 15 15.6136 15 15C15 14.3863 15.469 13.8889 16.0476 13.8889L22.4232 13.8889L20.5449 11.8968Z" fill="#474743"/>
</svg>
