<svg width="60" height="60" viewBox="0 0 60 60" fill="none" xmlns="http://www.w3.org/2000/svg">
<path fill-rule="evenodd" clip-rule="evenodd" d="M42 23.25H15V18.75H42V23.25Z" fill="#686868"/>
<path fill-rule="evenodd" clip-rule="evenodd" d="M14.2501 20.25C14.2501 17.7647 16.2648 15.75 18.7501 15.75L38.25 15.75C40.7353 15.75 42.75 17.7648 42.75 20.25V39.75C42.75 42.2353 40.7353 44.25 38.25 44.25H18.75C16.2647 44.25 14.25 42.2353 14.25 39.75L14.2501 20.25ZM38.25 20.25L18.7501 20.25L18.75 39.75L38.25 39.75L38.25 20.25Z" fill="#686868"/>
<path fill-rule="evenodd" clip-rule="evenodd" d="M25.5 31.5C26.3284 31.5 27 32.1716 27 33V36C27 36.8284 26.3284 37.5 25.5 37.5H22.5C21.6716 37.5 21 36.8284 21 36L21 33C21 32.1716 21.6716 31.5 22.5 31.5L25.5 31.5Z" fill="#686868"/>
<path fill-rule="evenodd" clip-rule="evenodd" d="M35.25 12.75C36.4926 12.75 37.5 13.7574 37.5 15V19.5C37.5 20.7426 36.4926 21.75 35.25 21.75C34.0074 21.75 33 20.7426 33 19.5V15C33 13.7574 34.0074 12.75 35.25 12.75Z" fill="#686868"/>
<path fill-rule="evenodd" clip-rule="evenodd" d="M21.75 12.75C22.9926 12.75 24 13.7574 24 15V19.5C24 20.7426 22.9926 21.75 21.75 21.75C20.5074 21.75 19.5 20.7426 19.5 19.5V15C19.5 13.7574 20.5074 12.75 21.75 12.75Z" fill="#686868"/>
</svg>
