<svg width="32" height="32" viewBox="0 0 32 32" fill="none" xmlns="http://www.w3.org/2000/svg">
<path d="M0 16C0 7.16344 7.16344 0 16 0C24.8366 0 32 7.16344 32 16C32 24.8366 24.8366 32 16 32C7.16344 32 0 24.8366 0 16Z" fill="#EDA538"/>
<g clip-path="url(#clip0_1300_247)">
<path d="M14.4441 21.9705C14.0709 21.5634 14.0675 20.8847 14.5349 20.6174C15.4497 20.0941 16.5503 20.0941 17.4651 20.6174C17.9325 20.8847 17.9291 21.5634 17.5559 21.9705L16.6757 22.9307C16.3025 23.3378 15.6975 23.3378 15.3243 22.9307L14.4441 21.9705Z" fill="white"/>
<path fill-rule="evenodd" clip-rule="evenodd" d="M24.0639 14.8709C23.6907 15.278 23.0879 15.2734 22.6825 14.9047C18.8201 11.3912 13.1799 11.3912 9.31747 14.9047C8.91212 15.2734 8.3093 15.278 7.93611 14.8709L7.17665 14.0424C6.80346 13.6353 6.80198 12.9714 7.20042 12.5938C12.2389 7.81928 19.7611 7.81928 24.7996 12.5938C25.198 12.9714 25.1965 13.6353 24.8234 14.0424L24.0639 14.8709Z" fill="white"/>
<path fill-rule="evenodd" clip-rule="evenodd" d="M20.5457 18.7087C20.1725 19.1158 19.5711 19.1063 19.1391 18.7756C17.2608 17.3376 14.7392 17.3376 12.8609 18.7756C12.4289 19.1063 11.8275 19.1158 11.4543 18.7087L10.6948 17.8802C10.3216 17.4731 10.3189 16.8073 10.7313 16.4481C13.8058 13.7712 18.1942 13.7712 21.2687 16.4481C21.6811 16.8073 21.6784 17.4731 21.3052 17.8802L20.5457 18.7087Z" fill="white"/>
</g>
<defs>
<clipPath id="clip0_1300_247">
<rect width="22" height="24" fill="white" transform="translate(5 4)"/>
</clipPath>
</defs>
</svg>
