<svg width="40" height="40" viewBox="0 0 40 40" fill="none" xmlns="http://www.w3.org/2000/svg">
<path fill-rule="evenodd" clip-rule="evenodd" d="M18.25 10C17.7779 10 17.3333 10.2223 17.05 10.6C16.389 11.4813 15.3517 12 14.25 12H13C11.8954 12 11 12.8954 11 14V28C11 29.1046 11.8954 30 13 30H27C28.1046 30 29 29.1046 29 28V14C29 12.8954 28.1046 12 27 12H25.75C24.6483 12 23.611 11.4813 22.95 10.6C22.6667 10.2223 22.2221 10 21.75 10H18.25ZM15.45 9.4C16.111 8.51868 17.1483 8 18.25 8H21.75C22.8517 8 23.889 8.51868 24.55 9.4C24.8333 9.77771 25.2779 10 25.75 10H27C29.2091 10 31 11.7909 31 14V28C31 30.2091 29.2091 32 27 32H13C10.7909 32 9 30.2091 9 28V14C9 11.7909 10.7909 10 13 10H14.25C14.7221 10 15.1667 9.77771 15.45 9.4Z" fill="#AAAAAA"/>
<path fill-rule="evenodd" clip-rule="evenodd" d="M14 14C13.4477 14 13 14.4477 13 15V19C13 19.5523 13.4477 20 14 20H18C18.5523 20 19 19.5523 19 19V15C19 14.4477 18.5523 14 18 14H14ZM17.5701 15.6159C17.7822 15.7927 17.8109 16.108 17.6341 16.3201L15.9675 18.3201C15.8725 18.4341 15.7317 18.5 15.5833 18.5C15.435 18.5 15.2942 18.4341 15.1992 18.3201L14.3659 17.3201C14.1891 17.108 14.2178 16.7927 14.4299 16.6159C14.6421 16.4391 14.9573 16.4678 15.1341 16.6799L15.5833 17.219L16.8659 15.6799C17.0427 15.4678 17.358 15.4391 17.5701 15.6159Z" fill="#AAAAAA"/>
<path fill-rule="evenodd" clip-rule="evenodd" d="M20 15C20 14.4477 20.4477 14 21 14H26C26.5523 14 27 14.4477 27 15C27 15.5523 26.5523 16 26 16H21C20.4477 16 20 15.5523 20 15ZM20 19C20 18.4477 20.4477 18 21 18H26C26.5523 18 27 18.4477 27 19C27 19.5523 26.5523 20 26 20H21C20.4477 20 20 19.5523 20 19ZM13 23C13 22.4477 13.4477 22 14 22H26C26.5523 22 27 22.4477 27 23C27 23.5523 26.5523 24 26 24H14C13.4477 24 13 23.5523 13 23ZM13 27C13 26.4477 13.4477 26 14 26H26C26.5523 26 27 26.4477 27 27C27 27.5523 26.5523 28 26 28H14C13.4477 28 13 27.5523 13 27Z" fill="#AAAAAA"/>
</svg>
