<svg width="30" height="30" viewBox="0 0 30 30" fill="none" xmlns="http://www.w3.org/2000/svg">
<path fill-rule="evenodd" clip-rule="evenodd" d="M21.4756 19.6984C21.7322 19.3454 21.3902 18.8917 20.9568 18.9434C20.6431 18.9808 20.3238 19 20 19C15.5817 19 12 15.4183 12 11C12 10.0605 12.1619 9.15892 12.4594 8.3215C12.6055 7.91025 12.2387 7.47659 11.8378 7.64925C8.9922 8.87502 7 11.7049 7 15C7 19.4183 10.5817 23 15 23C17.6626 23 20.0214 21.6992 21.4756 19.6984Z" fill="#AAAAAA"/>
<path d="M17.8098 6.58541C17.8697 6.40115 18.1303 6.40115 18.1902 6.58541L18.6286 7.93475C18.6554 8.01716 18.7322 8.07295 18.8189 8.07295H20.2376C20.4314 8.07295 20.5119 8.32087 20.3552 8.43475L19.2074 9.26869C19.1373 9.31962 19.1079 9.40989 19.1347 9.4923L19.5731 10.8416C19.633 11.0259 19.4221 11.1791 19.2654 11.0652L18.1176 10.2313C18.0475 10.1804 17.9525 10.1804 17.8824 10.2313L16.7346 11.0652C16.5779 11.1791 16.367 11.0259 16.4269 10.8416L16.8653 9.4923C16.8921 9.40989 16.8627 9.31962 16.7926 9.26869L15.6448 8.43475C15.4881 8.32087 15.5686 8.07295 15.7624 8.07295H17.1811C17.2678 8.07295 17.3446 8.01716 17.3714 7.93475L17.8098 6.58541Z" fill="#AAAAAA"/>
<path d="M20.4049 12.2927C20.4348 12.2006 20.5652 12.2006 20.5951 12.2927L20.8143 12.9674C20.8277 13.0086 20.8661 13.0365 20.9094 13.0365H21.6188C21.7157 13.0365 21.756 13.1604 21.6776 13.2174L21.1037 13.6343C21.0686 13.6598 21.054 13.7049 21.0674 13.7461L21.2866 14.4208C21.3165 14.513 21.2111 14.5896 21.1327 14.5326L20.5588 14.1157C20.5237 14.0902 20.4763 14.0902 20.4412 14.1157L19.8673 14.5326C19.7889 14.5896 19.6835 14.513 19.7134 14.4208L19.9326 13.7461C19.946 13.7049 19.9314 13.6598 19.8963 13.6343L19.3224 13.2174C19.244 13.1604 19.2843 13.0365 19.3812 13.0365H20.0906C20.1339 13.0365 20.1723 13.0086 20.1857 12.9674L20.4049 12.2927Z" fill="#AAAAAA"/>
</svg>
