<svg width="30" height="30" viewBox="0 0 30 30" fill="none" xmlns="http://www.w3.org/2000/svg">
<path d="M15.0791 8.80078C15.46 8.80078 15.7822 8.93555 16.0459 9.20508C16.3096 9.46875 16.4414 9.78809 16.4414 10.1631C16.4414 10.5381 16.3066 10.8574 16.0371 11.1211C15.7734 11.3848 15.4541 11.5166 15.0791 11.5166C14.7041 11.5166 14.3848 11.3848 14.1211 11.1211C13.8574 10.8574 13.7256 10.5381 13.7256 10.1631C13.7256 9.78809 13.8574 9.46875 14.1211 9.20508C14.3848 8.93555 14.7041 8.80078 15.0791 8.80078ZM16.3096 12.7822V19.2949C16.3096 19.875 16.377 20.2471 16.5117 20.4111C16.6465 20.5693 16.9102 20.6602 17.3027 20.6836V21H12.8643V20.6836C13.2275 20.6719 13.4971 20.5664 13.6729 20.3672C13.79 20.2324 13.8486 19.875 13.8486 19.2949V14.4961C13.8486 13.916 13.7812 13.5469 13.6465 13.3887C13.5117 13.2246 13.251 13.1309 12.8643 13.1074V12.7822H16.3096Z" fill="#AAAAAA"/>
</svg>
