<svg width="60" height="60" viewBox="0 0 60 60" fill="none" xmlns="http://www.w3.org/2000/svg">
<path fill-rule="evenodd" clip-rule="evenodd" d="M41.6355 27.6389C41.6683 27.6059 41.7008 27.5726 41.7328 27.5391C41.7035 27.5698 41.6738 27.5999 41.6438 27.6302L41.6355 27.6389ZM26.4629 22.3999C27.24 22.3076 28.0269 22.3168 28.8021 22.4275C28.0966 22.3268 27.3814 22.3101 26.6728 22.3775C26.6028 22.3841 26.5328 22.3916 26.4629 22.3999ZM31.5037 35.3587C32.3298 35.4481 33.166 35.4229 33.9864 35.2832L33.9966 35.2815C33.1729 35.4227 32.3332 35.4484 31.5037 35.3587ZM28.67 40.9537L28.6165 40.9931C28.454 41.1119 28.2867 41.2275 28.1149 41.3388C28.3057 41.2152 28.4908 41.0864 28.67 40.9537ZM25.206 27.9866C25.3243 27.9014 25.4461 27.8236 25.571 27.753C25.4581 27.8484 25.3352 27.9262 25.206 27.9866ZM30.0723 34.8201L29.9243 34.7778L29.8179 34.8889C28.6704 36.0868 27.7942 36.9979 27.492 37.3043C26.557 38.2523 25.4175 38.9683 24.3126 39.1655C23.3332 39.3404 22.1828 39.1523 20.9073 37.8773C19.4431 36.4136 19.4431 34.0346 20.9073 32.5709L24.893 28.5868C25.0387 28.4411 25.1933 28.3101 25.3549 28.1937C25.4655 28.1141 25.5796 28.0412 25.6963 27.9752C26.386 27.5853 27.1736 27.4326 27.9402 27.5179C28.7509 27.608 29.5376 27.9641 30.1605 28.5868C30.6729 29.099 31.407 29.2585 32.0568 29.0667C32.3476 28.9809 32.6219 28.8248 32.8523 28.5986C33.6004 27.8638 33.6058 26.6662 32.8642 25.9248C31.8278 24.8889 30.5636 24.217 29.2321 23.9099C27.257 23.4544 25.1331 23.8014 23.3829 24.952C22.9606 25.2296 22.5602 25.554 22.1892 25.9248L18.2036 29.909C15.2655 32.8461 15.2655 37.6021 18.2036 40.5392C20.3181 42.6529 22.7155 43.2902 24.9872 42.8848C26.4637 42.6212 27.7825 41.9378 28.8721 41.1214L28.9201 41.0852L28.953 41.0602C29.4168 40.7061 29.8392 40.3278 30.2147 39.9472C30.7011 39.454 32.539 37.536 34.6052 35.3745L35.1856 34.7674L34.3656 34.949C32.9498 35.2626 31.4704 35.2196 30.0723 34.8201ZM37.8108 31.8232C36.0338 33.5995 33.5886 34.3042 31.2824 33.9381C29.7641 33.6971 28.305 32.992 27.1358 31.8232C26.3942 31.0819 26.3996 29.8842 27.1477 29.1495C27.8946 28.416 29.0992 28.4212 29.8396 29.1613C31.2958 30.617 33.6508 30.617 35.1071 29.1613L39.0927 25.1771C39.4794 24.7906 39.7636 24.3407 39.946 23.861C40.4552 22.521 40.1701 20.9478 39.0927 19.8707C37.6364 18.415 35.2814 18.415 33.8252 19.8707L30.5609 23.1338L30.4096 23.0809C29.0871 22.6182 27.6743 22.484 26.2992 22.6786L25.5426 22.7856L31.1214 17.2088C34.0676 14.2637 38.8503 14.2637 41.7964 17.2088C44.3218 19.7332 44.6764 23.601 42.861 26.5031C42.5677 26.972 42.2178 27.4155 41.8115 27.8239L41.7964 27.839L37.8108 31.8232Z" fill="#686868"/>
</svg>
