<svg width="30" height="30" viewBox="0 0 30 30" fill="none" xmlns="http://www.w3.org/2000/svg">
<path d="M23.1622 14.0209V14.0209C20.5873 12.9773 18.6422 10.7982 17.8964 8.12185L17.5543 6.89428C17.4956 6.68327 17.3171 6.53857 17.1157 6.53857C16.9143 6.53857 16.7358 6.68327 16.677 6.89428L16.3352 8.12135C15.5896 10.798 13.6443 12.9773 11.0692 14.0209V14.0209C10.8888 14.0942 10.7695 14.2816 10.7695 14.4921C10.7695 14.7021 10.8888 14.8905 11.0692 14.9634V14.9634C13.6404 16.0057 15.576 18.1907 16.3004 20.8689L16.6757 22.2563C16.7335 22.4693 16.9124 22.6155 17.1157 22.6155C17.3185 22.6155 17.4979 22.4693 17.5557 22.2558L17.9309 20.8688C18.6554 18.1904 20.5912 16.0051 23.1627 14.9629V14.9629C23.3421 14.8905 23.4618 14.7026 23.4618 14.4921C23.4618 14.2821 23.3421 14.0942 23.1622 14.0209Z" fill="white"/>
<path d="M11.745 19.3931V19.3931C11.0864 19.1495 10.586 18.6029 10.4012 17.9255L10.2875 17.5084C10.234 17.3107 10.0549 17.1738 9.85035 17.1738C9.64583 17.1738 9.4667 17.3107 9.41274 17.508L9.29888 17.9255C9.11419 18.6026 8.61399 19.149 7.9557 19.3927V19.3927C7.77749 19.4584 7.65958 19.6285 7.65958 19.818C7.65958 20.0076 7.77749 20.1776 7.9557 20.2434V20.2434C8.60874 20.4855 9.10031 21.0341 9.26949 21.7097L9.41047 22.2727C9.46126 22.4741 9.6422 22.6155 9.85035 22.6155C10.0585 22.6155 10.2394 22.4741 10.2902 22.2723L10.4312 21.7093C10.6004 21.0337 11.092 20.485 11.745 20.2429V20.2429C11.9232 20.1776 12.0411 20.0076 12.0411 19.818C12.0411 19.6285 11.9232 19.4584 11.745 19.3931ZM9.77779 9.56935V9.56935C9.09731 9.31749 8.56054 8.78049 8.30851 8.10008V8.10008C8.24276 7.92186 8.07316 7.80396 7.88315 7.80396C7.69359 7.80396 7.52399 7.92186 7.45778 8.10008V8.10008C7.20593 8.7808 6.66923 9.3175 5.98851 9.56935V9.56935C5.81029 9.63556 5.69238 9.80516 5.69238 9.99472C5.69238 10.1843 5.81029 10.3543 5.98851 10.4201V10.4201C6.66923 10.6719 7.20593 11.2086 7.45778 11.8894V11.8894C7.52399 12.0676 7.69359 12.1855 7.88315 12.1855C8.0727 12.1855 8.2423 12.0676 8.30851 11.8894V11.8894C8.56036 11.2086 9.09707 10.6719 9.77779 10.4201V10.4201C9.95601 10.3539 10.0739 10.1843 10.0739 9.99472C10.0739 9.80516 9.95601 9.63556 9.77779 9.56935Z" fill="white"/>
</svg>
