<svg width="18" height="18" viewBox="0 0 18 18" fill="none" xmlns="http://www.w3.org/2000/svg">
<path fill-rule="evenodd" clip-rule="evenodd" d="M14.1491 5.95309L14.1967 6.03621C14.3279 6.26487 14.5183 6.45343 14.7475 6.58181L15.8722 7.21175C16.1017 7.34027 16.2442 7.58366 16.2448 7.84804L16.25 10.1489C16.2506 10.4149 16.1075 10.6602 15.8764 10.7891L14.7489 11.4181C14.5188 11.5465 14.3277 11.7355 14.1961 11.9649L14.1491 12.0469C14.0175 12.2761 13.9504 12.5371 13.9548 12.8018L13.9765 14.1019C13.981 14.3664 13.8428 14.6127 13.6155 14.7455L11.6375 15.9014C11.4091 16.0348 11.1267 16.0327 10.9003 15.8959L9.79373 15.227C9.56828 15.0908 9.31026 15.0188 9.04729 15.0188H8.9518C8.68941 15.0188 8.43193 15.0905 8.2068 15.2262L7.10532 15.8902C6.87971 16.0262 6.59864 16.0286 6.37079 15.8964L4.38647 14.7452C4.15804 14.6126 4.01906 14.3657 4.02351 14.1003L4.04521 12.8059C4.04962 12.5431 3.9835 12.284 3.85382 12.0559L3.80341 11.9673C3.67215 11.7364 3.48072 11.546 3.24982 11.4167L2.12779 10.7883C1.89831 10.6597 1.75579 10.4163 1.75519 10.152L1.75 7.85107C1.7494 7.58508 1.89255 7.33982 2.12363 7.21089L3.25108 6.58185C3.4812 6.45346 3.67229 6.26446 3.80389 6.0351L3.85094 5.95309C3.98246 5.72386 4.04961 5.46293 4.04518 5.19823L4.02346 3.89813C4.01903 3.63356 4.15716 3.3873 4.38447 3.25447L6.36253 2.09864C6.59092 1.96518 6.87332 1.96728 7.09972 2.10413L8.20627 2.77295C8.43172 2.90922 8.68974 2.98121 8.95271 2.98121H9.0482C9.31059 2.98121 9.56807 2.90953 9.7932 2.77382L10.8947 2.10981C11.1203 1.9738 11.4014 1.97143 11.6292 2.10362L13.6136 3.25486C13.842 3.38738 13.981 3.63428 13.9765 3.89966L13.9548 5.19823C13.9504 5.46293 14.0175 5.72386 14.1491 5.95309ZM8.86574 12.2308C10.5712 12.2308 11.9537 10.8446 11.9537 9.13462C11.9537 7.42466 10.5712 6.03846 8.86574 6.03846C7.16031 6.03846 5.77778 7.42466 5.77778 9.13462C5.77778 10.8446 7.16031 12.2308 8.86574 12.2308Z" fill="#686868"/>
</svg>
