<svg width="30" height="30" viewBox="0 0 30 30" fill="none" xmlns="http://www.w3.org/2000/svg">
<path fill-rule="evenodd" clip-rule="evenodd" d="M20.1491 11.9531L20.1967 12.0362C20.3279 12.2649 20.5183 12.4534 20.7475 12.5818L21.8722 13.2117C22.1017 13.3403 22.2442 13.5837 22.2448 13.848L22.25 16.1489C22.2506 16.4149 22.1075 16.6602 21.8764 16.7891L20.7489 17.4181C20.5188 17.5465 20.3277 17.7355 20.1961 17.9649L20.1491 18.0469C20.0175 18.2761 19.9504 18.5371 19.9548 18.8018L19.9765 20.1019C19.981 20.3664 19.8428 20.6127 19.6155 20.7455L17.6375 21.9014C17.4091 22.0348 17.1267 22.0327 16.9003 21.8959L15.7937 21.227C15.5683 21.0908 15.3103 21.0188 15.0473 21.0188H14.9518C14.6894 21.0188 14.4319 21.0905 14.2068 21.2262L13.1053 21.8902C12.8797 22.0262 12.5986 22.0286 12.3708 21.8964L10.3865 20.7452C10.158 20.6126 10.0191 20.3657 10.0235 20.1003L10.0452 18.8059C10.0496 18.5431 9.9835 18.284 9.85382 18.0559L9.80341 17.9673C9.67215 17.7364 9.48072 17.546 9.24982 17.4167L8.12779 16.7883C7.89831 16.6597 7.75579 16.4163 7.75519 16.152L7.75 13.8511C7.7494 13.5851 7.89255 13.3398 8.12363 13.2109L9.25108 12.5819C9.4812 12.4535 9.67229 12.2645 9.80389 12.0351L9.85094 11.9531C9.98246 11.7239 10.0496 11.4629 10.0452 11.1982L10.0235 9.89813C10.019 9.63356 10.1572 9.3873 10.3845 9.25447L12.3625 8.09864C12.5909 7.96518 12.8733 7.96728 13.0997 8.10413L14.2063 8.77295C14.4317 8.90922 14.6897 8.98121 14.9527 8.98121H15.0482C15.3106 8.98121 15.5681 8.90953 15.7932 8.77382L16.8947 8.10981C17.1203 7.9738 17.4014 7.97143 17.6292 8.10362L19.6136 9.25486C19.842 9.38738 19.981 9.63428 19.9765 9.89966L19.9548 11.1982C19.9504 11.4629 20.0175 11.7239 20.1491 11.9531ZM14.8657 18.2308C16.5712 18.2308 17.9537 16.8446 17.9537 15.1346C17.9537 13.4247 16.5712 12.0385 14.8657 12.0385C13.1603 12.0385 11.7778 13.4247 11.7778 15.1346C11.7778 16.8446 13.1603 18.2308 14.8657 18.2308Z" fill="#AAAAAA"/>
</svg>
