<svg width="60" height="60" viewBox="0 0 60 60" fill="none" xmlns="http://www.w3.org/2000/svg">
<path fill-rule="evenodd" clip-rule="evenodd" d="M36.1667 18C36.1667 16.8954 37.0621 16 38.1667 16H44C45.1046 16 46 16.8954 46 18V23.7778C46 24.8823 45.1046 25.7778 44 25.7778C42.8954 25.7778 42 24.8823 42 23.7778V23.0576L32.9591 32.7012C32.581 33.1045 32.0528 33.3333 31.5 33.3333C30.9472 33.3333 30.419 33.1045 30.0409 32.7012L24 26.2576L15.4591 35.3679C14.7036 36.1737 13.4379 36.2145 12.6321 35.4591C11.8263 34.7036 11.7855 33.4379 12.5409 32.6321L22.5409 21.9655C22.919 21.5622 23.4472 21.3333 24 21.3333C24.5528 21.3333 25.081 21.5621 25.4591 21.9655L31.5 28.4091L39.3835 20H38.1667C37.0621 20 36.1667 19.1046 36.1667 18Z" fill="#686868"/>
<path fill-rule="evenodd" clip-rule="evenodd" d="M40 28.75C40.6904 28.75 41.25 29.3096 41.25 30V42C41.25 42.6904 40.6904 43.25 40 43.25C39.3096 43.25 38.75 42.6904 38.75 42V30C38.75 29.3096 39.3096 28.75 40 28.75ZM25.3333 31.0357C26.0237 31.0357 26.5833 31.5954 26.5833 32.2857V42C26.5833 42.6904 26.0237 43.25 25.3333 43.25C24.643 43.25 24.0833 42.6904 24.0833 42V32.2857C24.0833 31.5954 24.643 31.0357 25.3333 31.0357ZM32.6667 34.8452C33.357 34.8452 33.9167 35.4049 33.9167 36.0952V42C33.9167 42.6904 33.357 43.25 32.6667 43.25C31.9763 43.25 31.4167 42.6904 31.4167 42V36.0952C31.4167 35.4049 31.9763 34.8452 32.6667 34.8452ZM18 35.6071C18.6904 35.6071 19.25 36.1668 19.25 36.8571V42C19.25 42.6904 18.6904 43.25 18 43.25C17.3096 43.25 16.75 42.6904 16.75 42V36.8571C16.75 36.1668 17.3096 35.6071 18 35.6071Z" fill="#686868"/>
</svg>
