<svg width="60" height="60" viewBox="0 0 60 60" fill="none" xmlns="http://www.w3.org/2000/svg">
<path fill-rule="evenodd" clip-rule="evenodd" d="M16.5 20.25C16.5 19.0074 17.5074 18 18.75 18H41.25C42.4926 18 43.5 19.0074 43.5 20.25C43.5 21.4926 42.4926 22.5 41.25 22.5H18.75C17.5074 22.5 16.5 21.4926 16.5 20.25ZM24.75 30C24.75 28.7574 25.7574 27.75 27 27.75H41.25C42.4926 27.75 43.5 28.7574 43.5 30C43.5 31.2426 42.4926 32.25 41.25 32.25H27C25.7574 32.25 24.75 31.2426 24.75 30ZM20.25 39.75C20.25 38.5074 21.2574 37.5 22.5 37.5H41.25C42.4926 37.5 43.5 38.5074 43.5 39.75C43.5 40.9926 42.4926 42 41.25 42H22.5C21.2574 42 20.25 40.9926 20.25 39.75Z" fill="#686868"/>
</svg>
