<svg width="32" height="32" viewBox="0 0 32 32" fill="none" xmlns="http://www.w3.org/2000/svg">
<path d="M0 16C0 7.16344 7.16344 0 16 0C24.8366 0 32 7.16344 32 16C32 24.8366 24.8366 32 16 32C7.16344 32 0 24.8366 0 16Z" fill="#3876ED"/>
<rect x="8" y="14" width="16" height="8" rx="1" fill="white" stroke="white" stroke-width="4"/>
<path d="M17.0038 2.72438C16.8515 2.19349 16.2978 1.88651 15.7669 2.03873C15.236 2.19096 14.929 2.74473 15.0812 3.27562L17.0038 2.72438ZM17.9975 7.54545L18.9966 7.50457L17.9975 7.54545ZM15.0812 3.27562C15.211 3.72815 15.4219 4.14798 15.6314 4.51942C15.8216 4.85676 16.0963 5.29622 16.275 5.60216C16.6903 6.31325 16.9714 6.92954 16.9983 7.58634L18.9966 7.50457C18.9486 6.33142 18.4478 5.3568 18.002 4.59356C17.7502 4.16233 17.5747 3.89377 17.3734 3.53693C17.1914 3.21418 17.0695 2.95367 17.0038 2.72438L15.0812 3.27562ZM16.9983 7.58634C17.0127 7.93753 16.9356 8.03023 16.8954 8.08041C16.8532 8.13313 16.7904 8.1944 16.6703 8.29601C16.5697 8.38113 16.3859 8.52874 16.2239 8.68059C15.8528 9.02853 15.4762 9.49906 15.2418 10.2467C15.0171 10.9634 14.942 11.8742 15.0462 13.0856L17.0388 12.9144C16.9476 11.853 17.0307 11.2263 17.1502 10.845C17.2601 10.4945 17.4139 10.3065 17.5919 10.1396C17.7045 10.034 17.7998 9.96016 17.9622 9.82279C18.105 9.70192 18.289 9.53968 18.4562 9.33092C18.835 8.85812 19.0282 8.27592 18.9966 7.50457L16.9983 7.58634Z" fill="white"/>
<g opacity="0.6">
<path d="M12 20.5C12 20.2239 12.2239 20 12.5 20H19.5C19.7761 20 20 20.2239 20 20.5V21.5C20 21.7761 19.7761 22 19.5 22H12.5C12.2239 22 12 21.7761 12 21.5V20.5Z" fill="#3876ED"/>
<path d="M8 20.5C8 20.2239 8.22386 20 8.5 20H10.5C10.7761 20 11 20.2239 11 20.5V21.5C11 21.7761 10.7761 22 10.5 22H8.5C8.22386 22 8 21.7761 8 21.5V20.5Z" fill="#3876ED"/>
<path d="M21 20.5C21 20.2239 21.2239 20 21.5 20H23.5C23.7761 20 24 20.2239 24 20.5V21.5C24 21.7761 23.7761 22 23.5 22H21.5C21.2239 22 21 21.7761 21 21.5V20.5Z" fill="#3876ED"/>
<path d="M8 17.5C8 17.2239 8.22386 17 8.5 17H9.78571C10.0619 17 10.2857 17.2239 10.2857 17.5V18.5C10.2857 18.7761 10.0619 19 9.78571 19H8.5C8.22386 19 8 18.7761 8 18.5V17.5Z" fill="#3876ED"/>
<path d="M11.4286 17.5C11.4286 17.2239 11.6524 17 11.9286 17H13.2143C13.4904 17 13.7143 17.2239 13.7143 17.5V18.5C13.7143 18.7761 13.4904 19 13.2143 19H11.9286C11.6524 19 11.4286 18.7761 11.4286 18.5V17.5Z" fill="#3876ED"/>
<path d="M14.8571 17.5C14.8571 17.2239 15.081 17 15.3571 17H16.6429C16.919 17 17.1429 17.2239 17.1429 17.5V18.5C17.1429 18.7761 16.919 19 16.6429 19H15.3571C15.081 19 14.8571 18.7761 14.8571 18.5V17.5Z" fill="#3876ED"/>
<path d="M18.2857 17.5C18.2857 17.2239 18.5096 17 18.7857 17H20.0714C20.3476 17 20.5714 17.2239 20.5714 17.5V18.5C20.5714 18.7761 20.3476 19 20.0714 19H18.7857C18.5096 19 18.2857 18.7761 18.2857 18.5V17.5Z" fill="#3876ED"/>
<path d="M21.7143 17.5C21.7143 17.2239 21.9381 17 22.2143 17H23.5C23.7761 17 24 17.2239 24 17.5V18.5C24 18.7761 23.7761 19 23.5 19H22.2143C21.9381 19 21.7143 18.7761 21.7143 18.5V17.5Z" fill="#3876ED"/>
<path d="M8 14.5C8 14.2239 8.22386 14 8.5 14H9.78571C10.0619 14 10.2857 14.2239 10.2857 14.5V15.5C10.2857 15.7761 10.0619 16 9.78571 16H8.5C8.22386 16 8 15.7761 8 15.5V14.5Z" fill="#3876ED"/>
<path d="M11.4286 14.5C11.4286 14.2239 11.6524 14 11.9286 14H13.2143C13.4904 14 13.7143 14.2239 13.7143 14.5V15.5C13.7143 15.7761 13.4904 16 13.2143 16H11.9286C11.6524 16 11.4286 15.7761 11.4286 15.5V14.5Z" fill="#3876ED"/>
<path d="M14.8571 14.5C14.8571 14.2239 15.081 14 15.3571 14H16.6429C16.919 14 17.1429 14.2239 17.1429 14.5V15.5C17.1429 15.7761 16.919 16 16.6429 16H15.3571C15.081 16 14.8571 15.7761 14.8571 15.5V14.5Z" fill="#3876ED"/>
<path d="M21.7143 14.5C21.7143 14.2239 21.9381 14 22.2143 14H23.5C23.7761 14 24 14.2239 24 14.5V15.5C24 15.7761 23.7761 16 23.5 16H22.2143C21.9381 16 21.7143 15.7761 21.7143 15.5V14.5Z" fill="#3876ED"/>
<path d="M18.2857 14.5C18.2857 14.2239 18.5096 14 18.7857 14H20.0714C20.3476 14 20.5714 14.2239 20.5714 14.5V15.5C20.5714 15.7761 20.3476 16 20.0714 16H18.7857C18.5096 16 18.2857 15.7761 18.2857 15.5V14.5Z" fill="#3876ED"/>
</g>
</svg>
